<svg width="12" height="12" viewBox="0 0 12 12" fill="none" xmlns="http://www.w3.org/2000/svg">
<path fill-rule="evenodd" clip-rule="evenodd" d="M1.2345 3.48444C1.26933 3.44952 1.31071 3.42181 1.35627 3.4029C1.40183 3.384 1.45067 3.37427 1.5 3.37427C1.54932 3.37427 1.59817 3.384 1.64372 3.4029C1.68928 3.42181 1.73066 3.44952 1.7655 3.48444L6 7.71969L10.2345 3.48444C10.2694 3.44957 10.3108 3.42191 10.3563 3.40305C10.4019 3.38418 10.4507 3.37446 10.5 3.37446C10.5493 3.37446 10.5981 3.38418 10.6437 3.40305C10.6892 3.42191 10.7306 3.44957 10.7655 3.48444C10.8004 3.5193 10.828 3.5607 10.8469 3.60625C10.8658 3.6518 10.8755 3.70063 10.8755 3.74994C10.8755 3.79925 10.8658 3.84807 10.8469 3.89363C10.828 3.93918 10.8004 3.98057 10.7655 4.01544L6.2655 8.51544C6.23066 8.55036 6.18928 8.57807 6.14372 8.59697C6.09816 8.61588 6.04932 8.62561 6 8.62561C5.95067 8.62561 5.90183 8.61588 5.85627 8.59697C5.81072 8.57807 5.76933 8.55036 5.7345 8.51544L1.2345 4.01544C1.19958 3.9806 1.17187 3.93922 1.15296 3.89366C1.13406 3.8481 1.12433 3.79926 1.12433 3.74994C1.12433 3.70061 1.13406 3.65177 1.15296 3.60621C1.17187 3.56065 1.19958 3.51927 1.2345 3.48444V3.48444Z" fill="#A2A9B0"/>
</svg>
