<svg width="72" height="28" viewBox="0 0 72 28" fill="none" xmlns="http://www.w3.org/2000/svg">
<path d="M37.6668 9.21652V8.18046H33.339V7.11816H31.8918V8.18046H27.4944V9.21652H37.6668ZM38.2931 13.7149H33.339V12.9673C35.5238 12.8624 36.7345 12.2854 36.7345 11.2887C36.7345 10.1739 35.329 9.59685 32.6154 9.59685C29.8879 9.59685 28.4824 10.1739 28.4824 11.2887C28.4824 12.2854 29.6513 12.8624 31.8918 12.9673V13.7149H26.9238V14.7772H38.2931V13.7149ZM30.0131 11.2887C30.0131 10.7772 30.8759 10.528 32.6154 10.528C34.3549 10.528 35.2177 10.7772 35.2177 11.2887C35.2177 11.8001 34.3549 12.0493 32.6154 12.0493C30.8759 12.0493 30.0131 11.8001 30.0131 11.2887ZM28.2876 15.551V18.9608H36.9154V15.551H28.2876ZM29.707 17.951V16.5739H35.5099V17.951H29.707Z" fill="#29BB89"/>
<path d="M50.3709 7.26243H49.0072V10.2657H47.6156V7.48538H46.2797V14.3837H47.6156V11.3673H49.0072V14.4624H50.3709V7.26243ZM45.6534 13.6231L45.5004 12.5214C44.2758 12.7313 43.1903 12.81 41.6039 12.81V11.4854H44.9716V10.4362H41.6039V9.1903H45.1107V8.10177H40.2124V13.9116H41.0612C43.0233 13.9116 44.2062 13.8723 45.6534 13.6231ZM41.8405 15.0395V16.128H48.9376V19.1182H50.3709V15.0395H41.8405Z" fill="#29BB89"/>
<path d="M62.8106 14.1608L63.4368 13.046C60.9598 12.6264 58.942 10.8034 58.942 8.91489V8.02308H57.4251V8.91489C57.4251 10.7641 55.4073 12.6264 52.9303 13.046L53.5426 14.1608C55.5882 13.7805 57.3556 12.5214 58.1766 10.9083C58.9976 12.5214 60.7649 13.7805 62.8106 14.1608ZM63.9238 16.469H52.5407V17.5837H63.9238V16.469Z" fill="#29BB89"/>
<path fill-rule="evenodd" clip-rule="evenodd" d="M15.8348 7.40448C16.6091 6.65659 17.6462 6.24275 18.7227 6.25211C19.7992 6.26146 20.829 6.69326 21.5903 7.45449C22.3515 8.21573 22.7833 9.2455 22.7926 10.322C22.802 11.3985 22.3882 12.4356 21.6403 13.21L21.6304 13.2202L19.6569 15.1935C19.2407 15.6099 18.7398 15.9319 18.1882 16.1377C17.6366 16.3434 17.0471 16.4281 16.4599 16.3861C15.8727 16.344 15.3013 16.1762 14.7847 15.8939C14.268 15.6116 13.8181 15.2215 13.4655 14.7501C13.1953 14.389 13.2691 13.8772 13.6302 13.6071C13.9914 13.337 14.5031 13.4108 14.7732 13.7719C14.9856 14.0558 15.2565 14.2907 15.5677 14.4607C15.8788 14.6307 16.2229 14.7318 16.5766 14.7571C16.9302 14.7825 17.2852 14.7314 17.6174 14.6075C17.9496 14.4836 18.2513 14.2897 18.5019 14.0389L20.4702 12.0707C20.9177 11.6049 21.1652 10.9823 21.1596 10.3362C21.1539 9.68789 20.8939 9.06773 20.4355 8.60928C19.977 8.15084 19.3569 7.8908 18.7085 7.88517C18.0621 7.87955 17.4392 8.12736 16.9733 8.57536L15.8463 9.6958C15.5264 10.0138 15.0094 10.0122 14.6915 9.69243C14.3735 9.37262 14.375 8.8556 14.6948 8.53764L15.8348 7.40448Z" fill="#29BB89"/>
<path fill-rule="evenodd" clip-rule="evenodd" d="M12.6827 11.0665C13.2344 10.8608 13.8238 10.776 14.411 10.8181C14.9982 10.8602 15.5696 11.028 16.0862 11.3103C16.6029 11.5926 17.0528 11.9827 17.4054 12.4541C17.6756 12.8152 17.6018 13.327 17.2407 13.5971C16.8796 13.8672 16.3678 13.7934 16.0977 13.4323C15.8853 13.1484 15.6144 12.9135 15.3032 12.7435C14.9921 12.5735 14.648 12.4724 14.2943 12.4471C13.9407 12.4217 13.5857 12.4728 13.2535 12.5967C12.9213 12.7206 12.6197 12.9145 12.369 13.1653L10.4008 15.1335C9.95324 15.5993 9.70572 16.2219 9.71134 16.868C9.71697 17.5163 9.97701 18.1365 10.4355 18.5949C10.8939 19.0534 11.5141 19.3134 12.1624 19.319C12.8085 19.3246 13.431 19.0771 13.8969 18.6296L15.0164 17.5101C15.3353 17.1912 15.8523 17.1912 16.1712 17.5101C16.4901 17.829 16.4901 18.346 16.1712 18.6649L15.0362 19.7998C14.2619 20.5477 13.2247 20.9614 12.1482 20.9521C11.0717 20.9427 10.0419 20.5109 9.28067 19.7497C8.51943 18.9885 8.08763 17.9587 8.07828 16.8822C8.06893 15.8057 8.48276 14.7686 9.23065 13.9942L9.24051 13.984L11.214 12.0107C11.214 12.0107 11.214 12.0107 11.214 12.0107C11.6302 11.5944 12.1312 11.2723 12.6827 11.0665Z" fill="#29BB89"/>
<rect x="1" y="1" width="70" height="25.2048" rx="12.6024" stroke="#29BB89" stroke-width="2"/>
</svg>
