<svg width="16" height="16" viewBox="0 0 16 16" fill="none" xmlns="http://www.w3.org/2000/svg">
<path fill-rule="evenodd" clip-rule="evenodd" d="M7.6459 2.64592C7.69234 2.59935 7.74752 2.56241 7.80827 2.5372C7.86901 2.512 7.93413 2.49902 7.9999 2.49902C8.06567 2.49902 8.13079 2.512 8.19153 2.5372C8.25228 2.56241 8.30745 2.59935 8.3539 2.64592L14.3539 8.64592C14.4478 8.7398 14.5005 8.86714 14.5005 8.99992C14.5005 9.13269 14.4478 9.26003 14.3539 9.35392C14.26 9.4478 14.1327 9.50055 13.9999 9.50055C13.8671 9.50055 13.7398 9.4478 13.6459 9.35392L7.9999 3.70692L2.3539 9.35392C2.26001 9.4478 2.13267 9.50055 1.9999 9.50055C1.86712 9.50055 1.73979 9.4478 1.6459 9.35392C1.55201 9.26003 1.49927 9.13269 1.49927 8.99992C1.49927 8.86714 1.55201 8.7398 1.6459 8.64592L7.6459 2.64592Z" fill="#A2A9B0"/>
<path fill-rule="evenodd" clip-rule="evenodd" d="M7.6459 6.64592C7.69234 6.59935 7.74752 6.56241 7.80827 6.5372C7.86901 6.512 7.93413 6.49902 7.9999 6.49902C8.06567 6.49902 8.13079 6.512 8.19153 6.5372C8.25228 6.56241 8.30745 6.59935 8.3539 6.64592L14.3539 12.6459C14.4478 12.7398 14.5005 12.8671 14.5005 12.9999C14.5005 13.1327 14.4478 13.26 14.3539 13.3539C14.26 13.4478 14.1327 13.5005 13.9999 13.5005C13.8671 13.5005 13.7398 13.4478 13.6459 13.3539L7.9999 7.70692L2.3539 13.3539C2.26001 13.4478 2.13267 13.5005 1.9999 13.5005C1.86712 13.5005 1.73979 13.4478 1.6459 13.3539C1.55201 13.26 1.49927 13.1327 1.49927 12.9999C1.49927 12.8671 1.55201 12.7398 1.6459 12.6459L7.6459 6.64592Z" fill="#A2A9B0"/>
</svg>
