<svg width="17" height="16" viewBox="0 0 17 16" fill="none" xmlns="http://www.w3.org/2000/svg">
<path fill-rule="evenodd" clip-rule="evenodd" d="M2.8009 12.5C2.8009 12.3674 2.85358 12.2402 2.94735 12.1464C3.04112 12.0527 3.1683 12 3.3009 12H14.3009C14.4335 12 14.5607 12.0527 14.6545 12.1464C14.7482 12.2402 14.8009 12.3674 14.8009 12.5C14.8009 12.6326 14.7482 12.7598 14.6545 12.8536C14.5607 12.9473 14.4335 13 14.3009 13H3.3009C3.1683 13 3.04112 12.9473 2.94735 12.8536C2.85358 12.7598 2.8009 12.6326 2.8009 12.5ZM2.8009 9.5C2.8009 9.36739 2.85358 9.24021 2.94735 9.14645C3.04112 9.05268 3.1683 9 3.3009 9H14.3009C14.4335 9 14.5607 9.05268 14.6545 9.14645C14.7482 9.24021 14.8009 9.36739 14.8009 9.5C14.8009 9.63261 14.7482 9.75979 14.6545 9.85355C14.5607 9.94732 14.4335 10 14.3009 10H3.3009C3.1683 10 3.04112 9.94732 2.94735 9.85355C2.85358 9.75979 2.8009 9.63261 2.8009 9.5ZM2.8009 6.5C2.8009 6.36739 2.85358 6.24021 2.94735 6.14645C3.04112 6.05268 3.1683 6 3.3009 6H14.3009C14.4335 6 14.5607 6.05268 14.6545 6.14645C14.7482 6.24021 14.8009 6.36739 14.8009 6.5C14.8009 6.63261 14.7482 6.75979 14.6545 6.85355C14.5607 6.94732 14.4335 7 14.3009 7H3.3009C3.1683 7 3.04112 6.94732 2.94735 6.85355C2.85358 6.75979 2.8009 6.63261 2.8009 6.5ZM2.8009 3.5C2.8009 3.36739 2.85358 3.24021 2.94735 3.14645C3.04112 3.05268 3.1683 3 3.3009 3H14.3009C14.4335 3 14.5607 3.05268 14.6545 3.14645C14.7482 3.24021 14.8009 3.36739 14.8009 3.5C14.8009 3.63261 14.7482 3.75979 14.6545 3.85355C14.5607 3.94732 14.4335 4 14.3009 4H3.3009C3.1683 4 3.04112 3.94732 2.94735 3.85355C2.85358 3.75979 2.8009 3.63261 2.8009 3.5Z" fill="#A2A9B0"/>
</svg>
