<svg width="36" height="36" viewBox="0 0 36 36" fill="none" xmlns="http://www.w3.org/2000/svg">
<path d="M0 4C0 1.79086 1.79086 0 4 0H36V36H4C1.79086 36 0 34.2091 0 32V4Z" fill="#252B3D"/>
<path fill-rule="evenodd" clip-rule="evenodd" d="M21.7733 10.8518C21.8257 10.904 21.8672 10.9661 21.8956 11.0344C21.9239 11.1028 21.9385 11.176 21.9385 11.25C21.9385 11.324 21.9239 11.3973 21.8956 11.4656C21.8672 11.534 21.8257 11.596 21.7733 11.6483L15.4204 18L21.7733 24.3518C21.8789 24.4574 21.9382 24.6007 21.9382 24.75C21.9382 24.8994 21.8789 25.0427 21.7733 25.1483C21.6677 25.2539 21.5244 25.3132 21.375 25.3132C21.2257 25.3132 21.0824 25.2539 20.9768 25.1483L14.2268 18.3983C14.1744 18.346 14.1328 18.284 14.1045 18.2156C14.0761 18.1473 14.0615 18.074 14.0615 18C14.0615 17.926 14.0761 17.8528 14.1045 17.7844C14.1328 17.7161 14.1744 17.654 14.2268 17.6018L20.9768 10.8518C21.029 10.7994 21.0911 10.7578 21.1594 10.7295C21.2278 10.7011 21.301 10.6865 21.375 10.6865C21.449 10.6865 21.5223 10.7011 21.5906 10.7295C21.659 10.7578 21.721 10.7994 21.7733 10.8518V10.8518Z" fill="#A2A9B0"/>
</svg>
