<svg width="36" height="36" viewBox="0 0 36 36" fill="none" xmlns="http://www.w3.org/2000/svg">
<path d="M0 0H32C34.2091 0 36 1.79086 36 4V32C36 34.2091 34.2091 36 32 36H0V0Z" fill="#252B3D"/>
<path fill-rule="evenodd" clip-rule="evenodd" d="M14.2268 10.8518C14.279 10.7994 14.3411 10.7578 14.4094 10.7295C14.4778 10.7011 14.551 10.6865 14.625 10.6865C14.699 10.6865 14.7723 10.7011 14.8406 10.7295C14.909 10.7578 14.971 10.7994 15.0233 10.8518L21.7733 17.6018C21.8257 17.654 21.8672 17.7161 21.8956 17.7844C21.9239 17.8528 21.9385 17.926 21.9385 18C21.9385 18.074 21.9239 18.1473 21.8956 18.2156C21.8672 18.284 21.8257 18.346 21.7733 18.3983L15.0233 25.1483C14.9177 25.2539 14.7744 25.3132 14.625 25.3132C14.4757 25.3132 14.3324 25.2539 14.2268 25.1483C14.1212 25.0427 14.0618 24.8994 14.0618 24.75C14.0618 24.6007 14.1212 24.4574 14.2268 24.3518L20.5797 18L14.2268 11.6483C14.1744 11.596 14.1328 11.534 14.1045 11.4656C14.0761 11.3973 14.0615 11.324 14.0615 11.25C14.0615 11.176 14.0761 11.1028 14.1045 11.0344C14.1328 10.9661 14.1744 10.904 14.2268 10.8518Z" fill="#A2A9B0"/>
</svg>
