<svg width="20" height="20" viewBox="0 0 20 20" fill="none" xmlns="http://www.w3.org/2000/svg">
<path d="M3.33335 10C3.33335 6.31812 6.31812 3.33335 10 3.33335C12.0976 3.33335 13.9407 4.30294 15.1519 5.82769L13.7525 5.82359C13.2922 5.82224 12.918 6.19424 12.9167 6.65448C12.9153 7.11472 13.2873 7.4889 13.7476 7.49025L16.6166 7.49866C16.6486 7.50061 16.6809 7.50072 16.7131 7.49894L17.0809 7.50002C17.3023 7.50067 17.5149 7.41316 17.6717 7.25681C17.8286 7.10046 17.9167 6.88812 17.9167 6.66669L17.9167 3.33335C17.9167 2.87312 17.5436 2.50002 17.0834 2.50002C16.6231 2.50002 16.25 2.87312 16.25 3.33335L16.25 4.54125C14.7396 2.78367 12.5192 1.66669 10 1.66669C5.39765 1.66669 1.66669 5.39765 1.66669 10C1.66669 14.6024 5.39765 18.3334 10 18.3334C13.28 18.3334 16.0535 16.4398 17.4129 13.7042C17.6178 13.2921 17.4497 12.7919 17.0375 12.5871C16.6254 12.3823 16.1252 12.5503 15.9204 12.9625C14.8254 15.166 12.6096 16.6667 10 16.6667C6.31812 16.6667 3.33335 13.6819 3.33335 10Z" fill="#A2A9B0"/>
</svg>
