<svg width="16" height="16" viewBox="0 0 16 16" fill="none" xmlns="http://www.w3.org/2000/svg">
<path d="M11.798 8.271L8.616 10.241C8.346 10.407 8 10.205 8 9.869V9.1C8 9.1 5.429 8.8 4 11.5C4.571 6.7 7.143 6.7 8 6.7V5.931C8 5.595 8.346 5.393 8.616 5.56L11.798 7.529C12.068 7.695 12.068 8.105 11.798 8.271Z" fill="#A2A9B0"/>
<path d="M0.310452 3L0.350452 3.87C0.0866182 4.25355 -0.0344003 4.71745 0.00845214 5.181L0.645452 12.181C0.690608 12.6779 0.919877 13.14 1.28825 13.4766C1.65662 13.8131 2.13749 13.9998 2.63645 14H12.9845C13.4834 13.9998 13.9643 13.8131 14.3327 13.4766C14.701 13.14 14.9303 12.6779 14.9755 12.181L15.6125 5.181C15.6376 4.90422 15.6048 4.62524 15.5161 4.36184C15.4274 4.09845 15.2848 3.85643 15.0974 3.65122C14.91 3.44601 14.6818 3.28212 14.4275 3.16999C14.1732 3.05787 13.8984 2.99997 13.6205 3H9.63845C9.10806 2.99989 8.59944 2.7891 8.22445 2.414L7.39645 1.586C7.02147 1.2109 6.51284 1.00011 5.98245 1H2.31045C1.78002 1 1.27131 1.21071 0.896239 1.58579C0.521166 1.96086 0.310452 2.46957 0.310452 3ZM1.00445 5.09C0.99195 4.95165 1.00841 4.81221 1.05278 4.68058C1.09715 4.54894 1.16847 4.42799 1.26217 4.32544C1.35588 4.22289 1.46992 4.14099 1.59703 4.08496C1.72415 4.02893 1.86154 3.99999 2.00045 4H13.6205C13.7594 3.99999 13.8968 4.02893 14.0239 4.08496C14.151 4.14099 14.265 4.22289 14.3587 4.32544C14.4524 4.42799 14.5238 4.54894 14.5681 4.68058C14.6125 4.81221 14.629 4.95165 14.6165 5.09L13.9805 12.09C13.958 12.3386 13.8433 12.5699 13.659 12.7383C13.4747 12.9067 13.2341 13 12.9845 13H2.63645C2.38698 12.9998 2.1466 12.9063 1.96251 12.7379C1.77842 12.5696 1.6639 12.3385 1.64145 12.09L1.00445 5.09ZM5.98245 2C6.24765 2.00006 6.50196 2.10545 6.68945 2.293L7.39645 3H2.00045C1.76045 3 1.53045 3.042 1.31745 3.12L1.31045 2.98C1.31569 2.71827 1.42335 2.46902 1.61032 2.28579C1.7973 2.10255 2.04866 1.99995 2.31045 2H5.98245Z" fill="#A2A9B0"/>
</svg>
