<svg width="20" height="20" viewBox="0 0 20 20" fill="none" xmlns="http://www.w3.org/2000/svg">
<g clip-path="url(#clip0_137_1784)">
<path d="M11.51 0.508331C11.4112 0.428018 11.281 0.397315 11.1567 0.42501L0.323378 2.92501C0.132714 2.96884 -0.00181737 3.13939 1.85627e-05 3.33501V17.5017C9.66877e-05 17.7073 0.150136 17.8821 0.353339 17.9134L11.1867 19.58C11.4141 19.615 11.6269 19.459 11.6618 19.2316C11.665 19.2107 11.6667 19.1895 11.6667 19.1684V0.83501C11.6671 0.70794 11.6094 0.587667 11.51 0.508331Z" fill="#4CAF50"/>
<path d="M19.5834 17.9183H11.25C11.0199 17.9183 10.8333 17.7317 10.8333 17.5016C10.8333 17.2715 11.0199 17.0849 11.25 17.0849H19.1667V2.91828H11.25C11.0199 2.91828 10.8333 2.73172 10.8333 2.5016C10.8333 2.27148 11.0199 2.08496 11.25 2.08496H19.5833C19.8134 2.08496 20 2.27152 20 2.50164V17.5016C20 17.7317 19.8135 17.9183 19.5834 17.9183Z" fill="#4CAF50"/>
<path d="M7.91666 13.7516C7.77298 13.7516 7.63947 13.6776 7.56334 13.5558L3.39666 6.88911C3.26857 6.69794 3.31974 6.43911 3.51091 6.31102C3.70209 6.18294 3.96091 6.23411 4.089 6.42528C4.09404 6.43278 4.0988 6.44044 4.10334 6.44825L8.27002 13.1149C8.3915 13.3104 8.33158 13.5673 8.13615 13.6888C8.07025 13.7297 7.99423 13.7515 7.91666 13.7516Z" fill="#FAFAFA"/>
<path d="M3.74999 13.7517C3.51987 13.7512 3.3337 13.5643 3.33417 13.3342C3.33432 13.2564 3.35628 13.1802 3.39749 13.1142L7.56417 6.44755C7.67956 6.24845 7.93452 6.1806 8.13358 6.29599C8.33268 6.41138 8.40054 6.66634 8.28515 6.8654C8.28061 6.87321 8.27585 6.88087 8.27081 6.88837L4.10417 13.555C4.02807 13.6774 3.89413 13.7518 3.74999 13.7517Z" fill="#FAFAFA"/>
<path d="M14.5834 17.9183C14.3533 17.9183 14.1667 17.7318 14.1667 17.5016V2.50164C14.1667 2.27152 14.3533 2.08496 14.5834 2.08496C14.8135 2.08496 15 2.27152 15 2.50164V17.5016C15 17.7318 14.8135 17.9183 14.5834 17.9183Z" fill="#4CAF50"/>
<path d="M19.5834 15.4183H11.25C11.0199 15.4183 10.8333 15.2318 10.8333 15.0016C10.8333 14.7715 11.0199 14.585 11.25 14.585H19.5833C19.8134 14.585 20 14.7715 20 15.0016C20 15.2318 19.8135 15.4183 19.5834 15.4183Z" fill="#4CAF50"/>
<path d="M19.5834 12.9183H11.25C11.0199 12.9183 10.8333 12.7318 10.8333 12.5016C10.8333 12.2715 11.0199 12.085 11.25 12.085H19.5833C19.8134 12.085 20 12.2715 20 12.5016C20 12.7318 19.8135 12.9183 19.5834 12.9183Z" fill="#4CAF50"/>
<path d="M19.5834 10.4183H11.25C11.0199 10.4183 10.8333 10.2318 10.8333 10.0016C10.8333 9.77152 11.0199 9.58496 11.25 9.58496H19.5833C19.8134 9.58496 20 9.77152 20 10.0016C20 10.2318 19.8135 10.4183 19.5834 10.4183Z" fill="#4CAF50"/>
<path d="M19.5834 7.91832H11.25C11.0199 7.91832 10.8333 7.73176 10.8333 7.50164C10.8333 7.27152 11.0199 7.08496 11.25 7.08496H19.5833C19.8134 7.08496 20 7.27152 20 7.50164C20 7.73176 19.8135 7.91832 19.5834 7.91832Z" fill="#4CAF50"/>
<path d="M19.5834 5.41831H11.25C11.0199 5.41831 10.8333 5.23175 10.8333 5.00164C10.8333 4.77152 11.0199 4.58496 11.25 4.58496H19.5833C19.8134 4.58496 20 4.77152 20 5.00164C20 5.23179 19.8135 5.41831 19.5834 5.41831Z" fill="#4CAF50"/>
</g>
<defs>
<clipPath id="clip0_137_1784">
<rect width="20" height="20" fill="white"/>
</clipPath>
</defs>
</svg>
