<svg width="36" height="36" viewBox="0 0 36 36" fill="none" xmlns="http://www.w3.org/2000/svg">
<rect width="36" height="36" rx="4" fill="#1B202C"/>
<path d="M25.502 11.9399C25.5954 12.0336 25.6479 12.1606 25.6479 12.2929C25.6479 12.4252 25.5954 12.5522 25.502 12.6459L24.459 13.6899L22.459 11.6899L23.502 10.6459C23.5957 10.5522 23.7229 10.4995 23.8555 10.4995C23.988 10.4995 24.1152 10.5522 24.209 10.6459L25.502 11.9389V11.9399ZM23.752 14.3959L21.752 12.3959L14.939 19.2099C14.8839 19.2649 14.8425 19.332 14.818 19.4059L14.013 21.8199C13.9984 21.8639 13.9963 21.9111 14.007 21.9562C14.0177 22.0014 14.0407 22.0426 14.0735 22.0754C14.1063 22.1082 14.1475 22.1312 14.1926 22.1419C14.2378 22.1526 14.285 22.1505 14.329 22.1359L16.743 21.3309C16.8167 21.3067 16.8838 21.2656 16.939 21.2109L23.752 14.3969V14.3959Z" fill="#A2A9B0"/>
<path fill-rule="evenodd" clip-rule="evenodd" d="M11 23.5C11 23.8978 11.158 24.2794 11.4393 24.5607C11.7206 24.842 12.1022 25 12.5 25H23.5C23.8978 25 24.2794 24.842 24.5607 24.5607C24.842 24.2794 25 23.8978 25 23.5V17.5C25 17.3674 24.9473 17.2402 24.8536 17.1464C24.7598 17.0527 24.6326 17 24.5 17C24.3674 17 24.2402 17.0527 24.1464 17.1464C24.0527 17.2402 24 17.3674 24 17.5V23.5C24 23.6326 23.9473 23.7598 23.8536 23.8536C23.7598 23.9473 23.6326 24 23.5 24H12.5C12.3674 24 12.2402 23.9473 12.1464 23.8536C12.0527 23.7598 12 23.6326 12 23.5V12.5C12 12.3674 12.0527 12.2402 12.1464 12.1464C12.2402 12.0527 12.3674 12 12.5 12H19C19.1326 12 19.2598 11.9473 19.3536 11.8536C19.4473 11.7598 19.5 11.6326 19.5 11.5C19.5 11.3674 19.4473 11.2402 19.3536 11.1464C19.2598 11.0527 19.1326 11 19 11H12.5C12.1022 11 11.7206 11.158 11.4393 11.4393C11.158 11.7206 11 12.1022 11 12.5V23.5Z" fill="#A2A9B0"/>
</svg>
