<svg width="16" height="16" viewBox="0 0 16 16" fill="none" xmlns="http://www.w3.org/2000/svg">
<path fill-rule="evenodd" clip-rule="evenodd" d="M7.6459 4.64592C7.69234 4.59935 7.74752 4.56241 7.80827 4.5372C7.86901 4.512 7.93413 4.49902 7.9999 4.49902C8.06567 4.49902 8.13079 4.512 8.19153 4.5372C8.25228 4.56241 8.30745 4.59935 8.3539 4.64592L14.3539 10.6459C14.4478 10.7398 14.5005 10.8671 14.5005 10.9999C14.5005 11.1327 14.4478 11.26 14.3539 11.3539C14.26 11.4478 14.1327 11.5005 13.9999 11.5005C13.8671 11.5005 13.7398 11.4478 13.6459 11.3539L7.9999 5.70692L2.3539 11.3539C2.26001 11.4478 2.13267 11.5005 1.9999 11.5005C1.86712 11.5005 1.73979 11.4478 1.6459 11.3539C1.55201 11.26 1.49927 11.1327 1.49927 10.9999C1.49927 10.8671 1.55201 10.7398 1.6459 10.6459L7.6459 4.64592Z" fill="#A2A9B0"/>
</svg>
