<svg width="16" height="16" viewBox="0 0 16 16" fill="none" xmlns="http://www.w3.org/2000/svg">
<path fill-rule="evenodd" clip-rule="evenodd" d="M1.64592 6.64592C1.69236 6.59935 1.74754 6.56241 1.80828 6.5372C1.86903 6.512 1.93415 6.49902 1.99992 6.49902C2.06568 6.49902 2.13081 6.512 2.19155 6.5372C2.2523 6.56241 2.30747 6.59935 2.35392 6.64592L7.99992 12.2929L13.6459 6.64592C13.7398 6.55203 13.8671 6.49929 13.9999 6.49929C14.1327 6.49929 14.26 6.55203 14.3539 6.64592C14.4478 6.7398 14.5005 6.86714 14.5005 6.99992C14.5005 7.13269 14.4478 7.26003 14.3539 7.35392L8.35392 13.3539C8.30747 13.4005 8.2523 13.4374 8.19155 13.4626C8.13081 13.4878 8.06568 13.5008 7.99992 13.5008C7.93415 13.5008 7.86903 13.4878 7.80828 13.4626C7.74754 13.4374 7.69236 13.4005 7.64592 13.3539L1.64592 7.35392C1.59935 7.30747 1.56241 7.2523 1.5372 7.19155C1.512 7.13081 1.49902 7.06568 1.49902 6.99992C1.49902 6.93415 1.512 6.86903 1.5372 6.80828C1.56241 6.74754 1.59935 6.69236 1.64592 6.64592Z" fill="#A2A9B0"/>
<path fill-rule="evenodd" clip-rule="evenodd" d="M1.64592 2.64592C1.69236 2.59935 1.74754 2.56241 1.80828 2.5372C1.86903 2.512 1.93415 2.49902 1.99992 2.49902C2.06568 2.49902 2.13081 2.512 2.19155 2.5372C2.2523 2.56241 2.30747 2.59935 2.35392 2.64592L7.99992 8.29292L13.6459 2.64592C13.6924 2.59943 13.7476 2.56255 13.8083 2.53739C13.8691 2.51223 13.9342 2.49929 13.9999 2.49929C14.0657 2.49929 14.1308 2.51223 14.1915 2.53739C14.2522 2.56255 14.3074 2.59943 14.3539 2.64592C14.4004 2.69241 14.4373 2.74759 14.4624 2.80833C14.4876 2.86907 14.5005 2.93417 14.5005 2.99992C14.5005 3.06566 14.4876 3.13076 14.4624 3.1915C14.4373 3.25224 14.4004 3.30743 14.3539 3.35392L8.35392 9.35392C8.30747 9.40048 8.2523 9.43742 8.19155 9.46263C8.13081 9.48784 8.06568 9.50081 7.99992 9.50081C7.93415 9.50081 7.86903 9.48784 7.80828 9.46263C7.74754 9.43742 7.69236 9.40048 7.64592 9.35392L1.64592 3.35392C1.59935 3.30747 1.56241 3.2523 1.5372 3.19155C1.512 3.13081 1.49902 3.06568 1.49902 2.99992C1.49902 2.93415 1.512 2.86903 1.5372 2.80828C1.56241 2.74754 1.59935 2.69236 1.64592 2.64592Z" fill="#A2A9B0"/>
</svg>
