<svg width="16" height="16" viewBox="0 0 16 16" fill="none" xmlns="http://www.w3.org/2000/svg">
<path fill-rule="evenodd" clip-rule="evenodd" d="M4.646 1.64592C4.69245 1.59935 4.74762 1.56241 4.80837 1.5372C4.86911 1.512 4.93423 1.49902 5 1.49902C5.06577 1.49902 5.13089 1.512 5.19163 1.5372C5.25238 1.56241 5.30756 1.59935 5.354 1.64592L11.354 7.64592C11.4006 7.69236 11.4375 7.74754 11.4627 7.80828C11.4879 7.86903 11.5009 7.93415 11.5009 7.99992C11.5009 8.06568 11.4879 8.13081 11.4627 8.19155C11.4375 8.2523 11.4006 8.30747 11.354 8.35392L5.354 14.3539C5.26011 14.4478 5.13278 14.5005 5 14.5005C4.86723 14.5005 4.73989 14.4478 4.646 14.3539C4.55211 14.26 4.49937 14.1327 4.49937 13.9999C4.49937 13.8671 4.55211 13.7398 4.646 13.6459L10.293 7.99992L4.646 2.35392C4.59944 2.30747 4.56249 2.2523 4.53729 2.19155C4.51208 2.13081 4.49911 2.06568 4.49911 1.99992C4.49911 1.93415 4.51208 1.86903 4.53729 1.80828C4.56249 1.74754 4.59944 1.69236 4.646 1.64592Z" fill="#A2A9B0"/>
</svg>
