<svg width="36" height="36" viewBox="0 0 36 36" fill="none" xmlns="http://www.w3.org/2000/svg">
<rect width="36" height="36" rx="4" fill="#26A85B"/>
<g clip-path="url(#clip0_208_3136)">
<path d="M22.4444 10H11.7778C10.7911 10 10 10.8 10 11.7778V24.2222C10 25.2 10.7911 26 11.7778 26H24.2222C25.2 26 26 25.2 26 24.2222V13.5556L22.4444 10ZM18 24.2222C16.5244 24.2222 15.3333 23.0311 15.3333 21.5556C15.3333 20.08 16.5244 18.8889 18 18.8889C19.4756 18.8889 20.6667 20.08 20.6667 21.5556C20.6667 23.0311 19.4756 24.2222 18 24.2222ZM20.6667 15.3333H11.7778V11.7778H20.6667V15.3333Z" fill="white"/>
</g>
<defs>
<clipPath id="clip0_208_3136">
<rect width="16" height="16" fill="white" transform="translate(10 10)"/>
</clipPath>
</defs>
</svg>
