<svg width="40" height="40" viewBox="0 0 40 40" fill="none" xmlns="http://www.w3.org/2000/svg">
<path d="M35 12.5C35.663 12.5 36.2989 12.7634 36.7678 13.2322C37.2366 13.7011 37.5 14.337 37.5 15V27.5C37.5 28.163 37.2366 28.7989 36.7678 29.2678C36.2989 29.7366 35.663 30 35 30H5C4.33696 30 3.70107 29.7366 3.23223 29.2678C2.76339 28.7989 2.5 28.163 2.5 27.5V15C2.5 14.337 2.76339 13.7011 3.23223 13.2322C3.70107 12.7634 4.33696 12.5 5 12.5H35ZM5 10C3.67392 10 2.40215 10.5268 1.46447 11.4645C0.526784 12.4021 0 13.6739 0 15L0 27.5C0 28.8261 0.526784 30.0979 1.46447 31.0355C2.40215 31.9732 3.67392 32.5 5 32.5H35C36.3261 32.5 37.5979 31.9732 38.5355 31.0355C39.4732 30.0979 40 28.8261 40 27.5V15C40 13.6739 39.4732 12.4021 38.5355 11.4645C37.5979 10.5268 36.3261 10 35 10H5Z" fill="white"/>
<path d="M32.5 25.625C32.5 25.4592 32.5658 25.3003 32.6831 25.1831C32.8003 25.0658 32.9592 25 33.125 25H34.375C34.5408 25 34.6997 25.0658 34.8169 25.1831C34.9342 25.3003 35 25.4592 35 25.625V26.875C35 27.0408 34.9342 27.1997 34.8169 27.3169C34.6997 27.4342 34.5408 27.5 34.375 27.5H33.125C32.9592 27.5 32.8003 27.4342 32.6831 27.3169C32.5658 27.1997 32.5 27.0408 32.5 26.875V25.625ZM32.5 20.625C32.5 20.4592 32.5658 20.3003 32.6831 20.1831C32.8003 20.0658 32.9592 20 33.125 20H34.375C34.5408 20 34.6997 20.0658 34.8169 20.1831C34.9342 20.3003 35 20.4592 35 20.625V21.875C35 22.0408 34.9342 22.1997 34.8169 22.3169C34.6997 22.4342 34.5408 22.5 34.375 22.5H33.125C32.9592 22.5 32.8003 22.4342 32.6831 22.3169C32.5658 22.1997 32.5 22.0408 32.5 21.875V20.625ZM20 20.625C20 20.4592 20.0658 20.3003 20.1831 20.1831C20.3003 20.0658 20.4592 20 20.625 20H21.875C22.0408 20 22.1997 20.0658 22.3169 20.1831C22.4342 20.3003 22.5 20.4592 22.5 20.625V21.875C22.5 22.0408 22.4342 22.1997 22.3169 22.3169C22.1997 22.4342 22.0408 22.5 21.875 22.5H20.625C20.4592 22.5 20.3003 22.4342 20.1831 22.3169C20.0658 22.1997 20 22.0408 20 21.875V20.625ZM25 20.625C25 20.4592 25.0658 20.3003 25.1831 20.1831C25.3003 20.0658 25.4592 20 25.625 20H29.375C29.5408 20 29.6997 20.0658 29.8169 20.1831C29.9342 20.3003 30 20.4592 30 20.625V21.875C30 22.0408 29.9342 22.1997 29.8169 22.3169C29.6997 22.4342 29.5408 22.5 29.375 22.5H25.625C25.4592 22.5 25.3003 22.4342 25.1831 22.3169C25.0658 22.1997 25 22.0408 25 21.875V20.625ZM27.5 25.625C27.5 25.4592 27.5658 25.3003 27.6831 25.1831C27.8003 25.0658 27.9592 25 28.125 25H29.375C29.5408 25 29.6997 25.0658 29.8169 25.1831C29.9342 25.3003 30 25.4592 30 25.625V26.875C30 27.0408 29.9342 27.1997 29.8169 27.3169C29.6997 27.4342 29.5408 27.5 29.375 27.5H28.125C27.9592 27.5 27.8003 27.4342 27.6831 27.3169C27.5658 27.1997 27.5 27.0408 27.5 26.875V25.625ZM15 20.625C15 20.4592 15.0658 20.3003 15.1831 20.1831C15.3003 20.0658 15.4592 20 15.625 20H16.875C17.0408 20 17.1997 20.0658 17.3169 20.1831C17.4342 20.3003 17.5 20.4592 17.5 20.625V21.875C17.5 22.0408 17.4342 22.1997 17.3169 22.3169C17.1997 22.4342 17.0408 22.5 16.875 22.5H15.625C15.4592 22.5 15.3003 22.4342 15.1831 22.3169C15.0658 22.1997 15 22.0408 15 21.875V20.625ZM10 20.625C10 20.4592 10.0658 20.3003 10.1831 20.1831C10.3003 20.0658 10.4592 20 10.625 20H11.875C12.0408 20 12.1997 20.0658 12.3169 20.1831C12.4342 20.3003 12.5 20.4592 12.5 20.625V21.875C12.5 22.0408 12.4342 22.1997 12.3169 22.3169C12.1997 22.4342 12.0408 22.5 11.875 22.5H10.625C10.4592 22.5 10.3003 22.4342 10.1831 22.3169C10.0658 22.1997 10 22.0408 10 21.875V20.625ZM5 20.625C5 20.4592 5.06585 20.3003 5.18306 20.1831C5.30027 20.0658 5.45924 20 5.625 20H6.875C7.04076 20 7.19973 20.0658 7.31694 20.1831C7.43415 20.3003 7.5 20.4592 7.5 20.625V21.875C7.5 22.0408 7.43415 22.1997 7.31694 22.3169C7.19973 22.4342 7.04076 22.5 6.875 22.5H5.625C5.45924 22.5 5.30027 22.4342 5.18306 22.3169C5.06585 22.1997 5 22.0408 5 21.875V20.625ZM32.5 15.625C32.5 15.4592 32.5658 15.3003 32.6831 15.1831C32.8003 15.0658 32.9592 15 33.125 15H34.375C34.5408 15 34.6997 15.0658 34.8169 15.1831C34.9342 15.3003 35 15.4592 35 15.625V16.875C35 17.0408 34.9342 17.1997 34.8169 17.3169C34.6997 17.4342 34.5408 17.5 34.375 17.5H33.125C32.9592 17.5 32.8003 17.4342 32.6831 17.3169C32.5658 17.1997 32.5 17.0408 32.5 16.875V15.625ZM27.5 15.625C27.5 15.4592 27.5658 15.3003 27.6831 15.1831C27.8003 15.0658 27.9592 15 28.125 15H29.375C29.5408 15 29.6997 15.0658 29.8169 15.1831C29.9342 15.3003 30 15.4592 30 15.625V16.875C30 17.0408 29.9342 17.1997 29.8169 17.3169C29.6997 17.4342 29.5408 17.5 29.375 17.5H28.125C27.9592 17.5 27.8003 17.4342 27.6831 17.3169C27.5658 17.1997 27.5 17.0408 27.5 16.875V15.625ZM22.5 15.625C22.5 15.4592 22.5658 15.3003 22.6831 15.1831C22.8003 15.0658 22.9592 15 23.125 15H24.375C24.5408 15 24.6997 15.0658 24.8169 15.1831C24.9342 15.3003 25 15.4592 25 15.625V16.875C25 17.0408 24.9342 17.1997 24.8169 17.3169C24.6997 17.4342 24.5408 17.5 24.375 17.5H23.125C22.9592 17.5 22.8003 17.4342 22.6831 17.3169C22.5658 17.1997 22.5 17.0408 22.5 16.875V15.625ZM17.5 15.625C17.5 15.4592 17.5658 15.3003 17.6831 15.1831C17.8003 15.0658 17.9592 15 18.125 15H19.375C19.5408 15 19.6997 15.0658 19.8169 15.1831C19.9342 15.3003 20 15.4592 20 15.625V16.875C20 17.0408 19.9342 17.1997 19.8169 17.3169C19.6997 17.4342 19.5408 17.5 19.375 17.5H18.125C17.9592 17.5 17.8003 17.4342 17.6831 17.3169C17.5658 17.1997 17.5 17.0408 17.5 16.875V15.625ZM12.5 15.625C12.5 15.4592 12.5658 15.3003 12.6831 15.1831C12.8003 15.0658 12.9592 15 13.125 15H14.375C14.5408 15 14.6997 15.0658 14.8169 15.1831C14.9342 15.3003 15 15.4592 15 15.625V16.875C15 17.0408 14.9342 17.1997 14.8169 17.3169C14.6997 17.4342 14.5408 17.5 14.375 17.5H13.125C12.9592 17.5 12.8003 17.4342 12.6831 17.3169C12.5658 17.1997 12.5 17.0408 12.5 16.875V15.625ZM5 15.625C5 15.4592 5.06585 15.3003 5.18306 15.1831C5.30027 15.0658 5.45924 15 5.625 15H9.375C9.54076 15 9.69973 15.0658 9.81694 15.1831C9.93415 15.3003 10 15.4592 10 15.625V16.875C10 17.0408 9.93415 17.1997 9.81694 17.3169C9.69973 17.4342 9.54076 17.5 9.375 17.5H5.625C5.45924 17.5 5.30027 17.4342 5.18306 17.3169C5.06585 17.1997 5 17.0408 5 16.875V15.625ZM5 25.625C5 25.4592 5.06585 25.3003 5.18306 25.1831C5.30027 25.0658 5.45924 25 5.625 25H6.875C7.04076 25 7.19973 25.0658 7.31694 25.1831C7.43415 25.3003 7.5 25.4592 7.5 25.625V26.875C7.5 27.0408 7.43415 27.1997 7.31694 27.3169C7.19973 27.4342 7.04076 27.5 6.875 27.5H5.625C5.45924 27.5 5.30027 27.4342 5.18306 27.3169C5.06585 27.1997 5 27.0408 5 26.875V25.625ZM10 25.625C10 25.4592 10.0658 25.3003 10.1831 25.1831C10.3003 25.0658 10.4592 25 10.625 25H24.375C24.5408 25 24.6997 25.0658 24.8169 25.1831C24.9342 25.3003 25 25.4592 25 25.625V26.875C25 27.0408 24.9342 27.1997 24.8169 27.3169C24.6997 27.4342 24.5408 27.5 24.375 27.5H10.625C10.4592 27.5 10.3003 27.4342 10.1831 27.3169C10.0658 27.1997 10 27.0408 10 26.875V25.625Z" fill="white"/>
</svg>
