<svg width="32" height="32" viewBox="0 0 32 32" fill="none" xmlns="http://www.w3.org/2000/svg">
<rect x="0.5" y="0.5" width="31" height="31" rx="3.5" stroke="#FF6093"/>
<path d="M15.9998 8.88892C16.2355 8.88892 16.4616 8.98257 16.6283 9.14927C16.795 9.31596 16.8887 9.54206 16.8887 9.7778V15.1111H22.222C22.4578 15.1111 22.6838 15.2048 22.8505 15.3715C23.0172 15.5382 23.1109 15.7643 23.1109 16C23.1109 16.2358 23.0172 16.4619 22.8505 16.6286C22.6838 16.7953 22.4578 16.8889 22.222 16.8889H16.8887V22.2222C16.8887 22.458 16.795 22.6841 16.6283 22.8508C16.4616 23.0175 16.2355 23.1111 15.9998 23.1111C15.764 23.1111 15.5379 23.0175 15.3712 22.8508C15.2045 22.6841 15.1109 22.458 15.1109 22.2222V16.8889H9.77756C9.54181 16.8889 9.31572 16.7953 9.14902 16.6286C8.98232 16.4619 8.88867 16.2358 8.88867 16C8.88867 15.7643 8.98232 15.5382 9.14902 15.3715C9.31572 15.2048 9.54181 15.1111 9.77756 15.1111H15.1109V9.7778C15.1109 9.54206 15.2045 9.31596 15.3712 9.14927C15.5379 8.98257 15.764 8.88892 15.9998 8.88892Z" fill="#FF6093"/>
</svg>
