<svg width="20" height="20" viewBox="0 0 20 20" fill="none" xmlns="http://www.w3.org/2000/svg">
<rect x="0.5" y="0.5" width="19" height="19" rx="3.5" stroke="#FF6093"/>
<path d="M9.99999 5.55554C10.1473 5.55554 10.2886 5.61407 10.3928 5.71826C10.497 5.82245 10.5555 5.96376 10.5555 6.1111V9.44443H13.8889C14.0362 9.44443 14.1775 9.50296 14.2817 9.60715C14.3859 9.71134 14.4444 9.85264 14.4444 9.99999C14.4444 10.1473 14.3859 10.2886 14.2817 10.3928C14.1775 10.497 14.0362 10.5555 13.8889 10.5555H10.5555V13.8889C10.5555 14.0362 10.497 14.1775 10.3928 14.2817C10.2886 14.3859 10.1473 14.4444 9.99999 14.4444C9.85264 14.4444 9.71134 14.3859 9.60715 14.2817C9.50296 14.1775 9.44443 14.0362 9.44443 13.8889V10.5555H6.1111C5.96376 10.5555 5.82245 10.497 5.71826 10.3928C5.61407 10.2886 5.55554 10.1473 5.55554 9.99999C5.55554 9.85264 5.61407 9.71134 5.71826 9.60715C5.82245 9.50296 5.96376 9.44443 6.1111 9.44443H9.44443V6.1111C9.44443 5.96376 9.50296 5.82245 9.60715 5.71826C9.71134 5.61407 9.85264 5.55554 9.99999 5.55554Z" fill="#FF6093"/>
</svg>
