<svg width="17" height="16" viewBox="0 0 17 16" fill="none" xmlns="http://www.w3.org/2000/svg">
<path d="M11.8704 10.3441C12.8387 9.02279 13.2724 7.38459 13.0847 5.75725C12.897 4.12991 12.1018 2.63344 10.8582 1.56723C9.61452 0.501022 8.01415 -0.0562959 6.37724 0.00677721C4.74032 0.0698504 3.18758 0.748663 2.02967 1.90741C0.871752 3.06615 0.194051 4.61938 0.132149 6.25633C0.0702472 7.89329 0.62871 9.49326 1.69581 10.7361C2.76291 11.979 4.25994 12.7732 5.88742 12.9597C7.51489 13.1462 9.15278 12.7113 10.4734 11.7421H10.4724C10.5024 11.7821 10.5344 11.8201 10.5704 11.8571L14.4204 15.7071C14.6079 15.8947 14.8623 16.0002 15.1275 16.0003C15.3928 16.0004 15.6473 15.8951 15.8349 15.7076C16.0225 15.5201 16.128 15.2657 16.1281 15.0005C16.1282 14.7352 16.0229 14.4807 15.8354 14.2931L11.9854 10.4431C11.9496 10.4069 11.9112 10.3735 11.8704 10.3431V10.3441ZM12.1284 6.5001C12.1284 7.22237 11.9861 7.93757 11.7097 8.60486C11.4333 9.27215 11.0282 9.87847 10.5175 10.3892C10.0068 10.8999 9.40045 11.305 8.73316 11.5814C8.06587 11.8578 7.35067 12.0001 6.6284 12.0001C5.90613 12.0001 5.19093 11.8578 4.52364 11.5814C3.85635 11.305 3.25004 10.8999 2.73931 10.3892C2.22859 9.87847 1.82346 9.27215 1.54706 8.60486C1.27066 7.93757 1.1284 7.22237 1.1284 6.5001C1.1284 5.04141 1.70786 3.64246 2.73931 2.61101C3.77076 1.57956 5.16971 1.0001 6.6284 1.0001C8.08709 1.0001 9.48604 1.57956 10.5175 2.61101C11.5489 3.64246 12.1284 5.04141 12.1284 6.5001Z" fill="#FF6093"/>
</svg>
