<svg width="48" height="48" viewBox="0 0 48 48" fill="none" xmlns="http://www.w3.org/2000/svg">
<rect width="48" height="48" rx="20" fill="white"/>
<g clip-path="url(#clip0_101_3233)">
<path d="M33.2 27.2001H14.8C14.4 27.2001 14 26.9001 14 26.4001C14 25.9001 14.3 25.6001 14.8 25.6001H33.2C33.6 25.6001 34 25.9001 34 26.4001C34 26.9001 33.6 27.2001 33.2 27.2001Z" fill="#FF88AE"/>
<path d="M31.3 21.1C31 21.1 30.8 21 30.7 20.8L29.3 18.8C29.1 18.5 29.2 18 29.5 17.8C29.8 17.6 30.3 17.7 30.5 18L31.3 19.2L33.1 16.9C33.4 16.6 33.8 16.5 34.2 16.8C34.5 17.1 34.6 17.5 34.3 17.9L31.8 21C31.8 21 31.5 21.1 31.3 21.1Z" fill="#FF88AE"/>
<path d="M27.8 30H16.2C15 30 14 29 14 27.7V19.8C14 18.6 15 17.6 16.2 17.6H28C28.4 17.6 28.8 17.9 28.8 18.4C28.8 18.9 28.4 19.1 28 19.1H16.2C15.8 19.1 15.5 19.4 15.5 19.8V27.7C15.5 28.1 15.8 28.4 16.2 28.4H27.8C28.2 28.4 28.6 28.7 28.6 29.2C28.6 29.7 28.2 30 27.8 30Z" fill="#FF6093"/>
<path d="M31.7 30H29.9C29.5 30 29.1 29.7 29.1 29.2C29.1 28.7 29.4 28.4 29.9 28.4H31.7C31.9 28.4 32.1 28.3 32.2 28.2C32.3 28.1 32.4 27.9 32.4 27.7V22.4C32.4 22 32.7 21.6 33.1 21.6C33.6 21.7 34 22 34 22.5V27.8C34 28.4 33.8 28.9 33.4 29.4C32.9 29.7 32.3 30 31.7 30Z" fill="#FF6093"/>
<path d="M31.9 23.2C29.4 23.2 27.3 21.1 27.3 18.6C27.3 16.1 29.4 14 31.9 14C34.4 14 36.5 16.1 36.5 18.6C36.5 21.1 34.4 23.2 31.9 23.2ZM31.9 15.5C30.2 15.5 28.8 16.9 28.8 18.6C28.8 20.3 30.2 21.7 31.9 21.7C33.6 21.7 35 20.3 35 18.6C35 16.9 33.6 15.5 31.9 15.5Z" fill="#FF6093"/>
<path d="M20.7 21.1H16.7C16.3 21.1 15.9 20.8 15.9 20.3C15.9 19.8 16.2 19.5 16.7 19.5H20.7C21.1 19.5 21.5 19.8 21.5 20.3C21.5 20.8 21.1 21.1 20.7 21.1Z" fill="#FF6093"/>
<path d="M21.8 23.2H16.7C16.3 23.2 15.9 22.9 15.9 22.4C15.9 21.9 16.2 21.6 16.7 21.6H21.8C22.2 21.6 22.6 21.9 22.6 22.4C22.6 22.9 22.2 23.2 21.8 23.2Z" fill="#FF6093"/>
</g>
<defs>
<clipPath id="clip0_101_3233">
<rect width="22.5" height="16" fill="white" transform="translate(14 14)"/>
</clipPath>
</defs>
</svg>
