<svg width="48" height="48" viewBox="0 0 48 48" fill="none" xmlns="http://www.w3.org/2000/svg">
<rect width="48" height="48" rx="20" fill="white"/>
<path d="M33.375 25.125H14.625L13.125 34.875H34.875L33.375 25.125ZM24 33.375H19.5V26.625H24V33.375ZM28.5 33.375V26.625H32.0887L33.1275 33.375H28.5Z" fill="#FF88AE"/>
<path d="M33.756 25.0407L33.6933 13.8207C33.6908 13.5226 33.5703 13.2376 33.3584 13.028C33.1464 12.8184 32.8601 12.7012 32.562 12.702L15.312 12.7984C15.0139 12.8011 14.7291 12.9216 14.5196 13.1335C14.3101 13.3455 14.1929 13.6317 14.1937 13.9298L14.2563 25.1494L12.8141 34.8814C12.8063 34.935 12.8102 34.9896 12.8255 35.0415C12.8408 35.0935 12.8672 35.1415 12.9028 35.1822C12.9385 35.223 12.9825 35.2555 13.0319 35.2777C13.0813 35.2998 13.135 35.311 13.1891 35.3104L34.9391 35.1893C34.9932 35.1891 35.0466 35.1772 35.0956 35.1544C35.1447 35.1316 35.1882 35.0985 35.2232 35.0573C35.2583 35.0162 35.284 34.9679 35.2987 34.9158C35.3133 34.8638 35.3165 34.8092 35.3081 34.7558L33.756 25.0407ZM14.9437 13.9253C14.9432 13.8259 14.9822 13.7304 15.0521 13.6597C15.122 13.589 15.2171 13.549 15.3165 13.5484L32.5665 13.452C32.6157 13.4517 32.6645 13.4611 32.7102 13.4797C32.7558 13.4983 32.7973 13.5257 32.8323 13.5603C32.8673 13.5949 32.8952 13.6361 32.9143 13.6814C32.9334 13.7268 32.9434 13.7755 32.9437 13.8248L33.0045 24.6998L15.0045 24.8003L14.9437 13.9253ZM13.6226 34.5581L14.9561 25.5507L33.0607 25.4494L34.4947 34.4415L13.6226 34.5581Z" fill="#FF6093"/>
<path d="M32.0999 26.205L15.9236 26.295C15.834 26.2955 15.7477 26.3281 15.6801 26.3867C15.6125 26.4454 15.5681 26.5263 15.5549 26.6149L14.5548 33.3709C14.5469 33.4245 14.5507 33.4792 14.566 33.5312C14.5812 33.5833 14.6076 33.6313 14.6432 33.6722C14.6789 33.713 14.723 33.7457 14.7724 33.7678C14.8219 33.79 14.8756 33.8012 14.9298 33.8006L33.1825 33.699C33.2366 33.6987 33.29 33.6867 33.339 33.6638C33.388 33.641 33.4315 33.6078 33.4665 33.5665C33.5015 33.5253 33.5271 33.477 33.5417 33.4249C33.5562 33.3728 33.5593 33.3181 33.5508 33.2647L32.4749 26.5207C32.4607 26.4319 32.415 26.3511 32.3462 26.2931C32.2773 26.2351 32.1899 26.2039 32.0999 26.205ZM24.3918 26.9977L28.1418 26.9767L28.1755 32.9767L24.4256 32.9977L24.3918 26.9977ZM23.6752 33.0019L19.9252 33.0229L19.8918 27.0229L23.6418 27.0019L23.6752 33.0019ZM16.2502 27.0431L19.1414 27.027L19.1748 33.027L15.3603 33.0484L16.2502 27.0431ZM28.9252 32.9726L28.8914 26.9726L31.7831 26.9565L32.7393 32.9512L28.9252 32.9726Z" fill="#FF6093"/>
<path d="M22.4464 14.2545L23.9464 14.2455L23.9509 14.9955L22.4509 15.0045L22.4464 14.2545Z" fill="#FF6093"/>
<path d="M19.0001 14.2545L20.5001 14.2455L20.5046 14.9955L19.0046 15.0045L19.0001 14.2545Z" fill="#FF6093"/>
<path d="M17.0001 14.2545L18.5001 14.2455L18.5046 14.9955L17.0046 15.0045L17.0001 14.2545Z" fill="#FF6093"/>
<path d="M24.6965 14.2406L31.4465 14.2001L31.451 14.9501L24.701 14.9906L24.6965 14.2406Z" fill="#FF6093"/>
<path d="M22.4601 16.504L23.9601 16.495L23.9646 17.245L22.4646 17.254L22.4601 16.504Z" fill="#FF6093"/>
<path d="M19.0138 16.504L20.5138 16.495L20.5183 17.245L19.0183 17.254L19.0138 16.504Z" fill="#FF6093"/>
<path d="M17.0138 16.504L18.5138 16.495L18.5183 17.245L17.0183 17.254L17.0138 16.504Z" fill="#FF6093"/>
<path d="M24.7101 16.4908L31.4601 16.4503L31.4646 17.2003L24.7146 17.2408L24.7101 16.4908Z" fill="#FF6093"/>
<path d="M22.4738 18.7539L23.9738 18.7449L23.9783 19.4949L22.4783 19.5039L22.4738 18.7539Z" fill="#FF6093"/>
<path d="M19.0275 18.7539L20.5275 18.7449L20.532 19.4949L19.032 19.5039L19.0275 18.7539Z" fill="#FF6093"/>
<path d="M17.0275 18.7539L18.5275 18.7449L18.532 19.4949L17.032 19.5039L17.0275 18.7539Z" fill="#FF6093"/>
<path d="M24.7236 18.7408L31.4736 18.7003L31.4781 19.4503L24.7281 19.4908L24.7236 18.7408Z" fill="#FF6093"/>
<path d="M28.3931 22.4127L28.0987 21.2626C28.0822 21.1982 28.049 21.1393 28.0024 21.092C27.9557 21.0447 27.8973 21.0106 27.8332 20.9933C27.7692 20.9757 27.7016 20.9755 27.6376 20.9928C27.5735 21.0101 27.5152 21.0442 27.4687 21.0916L26.3437 22.23L25.8206 21.1984C25.7936 21.1456 25.7546 21.1 25.7066 21.0652C25.6587 21.0304 25.6031 21.0074 25.5446 20.9983C25.486 20.9891 25.4261 20.9939 25.3698 21.0123C25.3135 21.0308 25.2623 21.0623 25.2206 21.1043L23.7269 22.6125L24.2602 23.1375L25.3852 21.9994L25.9102 23.031C25.9371 23.0841 25.9762 23.13 26.0243 23.1649C26.0724 23.1999 26.1282 23.2229 26.1869 23.232C26.2456 23.2415 26.3057 23.2367 26.3621 23.2181C26.4186 23.1995 26.4697 23.1676 26.5113 23.1252L27.5362 22.0875L27.7552 22.9437C27.7758 23.0247 27.823 23.0966 27.8892 23.1477C27.9554 23.1989 28.0368 23.2265 28.1204 23.226C28.1456 23.2259 28.1707 23.2233 28.1954 23.2182L30.0682 22.8327L29.9182 22.098L28.3931 22.4127Z" fill="#FF6093"/>
<path d="M16.9075 28.5381L18.4075 28.5291L18.412 29.2791L16.912 29.2881L16.9075 28.5381Z" fill="#FF6093"/>
<path d="M16.9205 30.7881L18.4205 30.7791L18.425 31.5291L16.925 31.5381L16.9205 30.7881Z" fill="#FF6093"/>
<path d="M29.657 28.4617L31.157 28.4527L31.1615 29.2027L29.6615 29.2117L29.657 28.4617Z" fill="#FF6093"/>
<path d="M29.6709 30.7115L31.1709 30.7025L31.1754 31.4525L29.6754 31.4615L29.6709 30.7115Z" fill="#FF6093"/>
<path d="M20.6573 28.5153L22.9074 28.5018L22.9119 29.2518L20.6618 29.2653L20.6573 28.5153Z" fill="#FF6093"/>
<path d="M20.6708 30.7651L22.9208 30.7516L22.9253 31.5016L20.6753 31.5151L20.6708 30.7651Z" fill="#FF6093"/>
<path d="M25.1571 28.4883L27.4071 28.4748L27.4116 29.2248L25.1616 29.2383L25.1571 28.4883Z" fill="#FF6093"/>
<path d="M25.1707 30.7382L27.4207 30.7247L27.4252 31.4747L25.1752 31.4882L25.1707 30.7382Z" fill="#FF6093"/>
</svg>
