<svg width="48" height="48" viewBox="0 0 48 48" fill="none" xmlns="http://www.w3.org/2000/svg">
<rect width="48" height="48" rx="20" fill="white"/>
<g clip-path="url(#clip0_101_3225)">
<path d="M16.2 28.2C16 28.2 15.8 28.1 15.7 28C15.4 27.7 15.4 27.2 15.7 26.9L22.5 20.1C22.8 19.8 23.3 19.8 23.6 20.1L27.2 23.7L33.8 17.1C34.1 16.8 34.6 16.8 34.9 17.1C35.2 17.4 35.2 17.9 34.9 18.2L27.8 25.3C27.5 25.6 27 25.6 26.7 25.3L23 21.7L16.7 28C16.6 28.1 16.4 28.2 16.2 28.2Z" fill="#FF6093"/>
<path d="M34.8 24.4C34.4 24.4 34 24.1 34 23.6V17.9H28.2C27.8 17.9 27.4 17.6 27.4 17.1C27.4 16.6 27.7 16.3 28.2 16.3H34.7C35.1 16.3 35.5 16.6 35.5 17.1V23.6C35.6 24 35.2 24.4 34.8 24.4Z" fill="#FF6093"/>
<path d="M34.8 35.5H13.8C13.4 35.5 13 35.2 13 34.7V13.7C13 13.3 13.3 13 13.8 13C14.3 13 14.6 13.3 14.6 13.8V34H34.9C35.3 34 35.7 34.3 35.7 34.8C35.7 35.3 35.3 35.5 34.8 35.5Z" fill="#FF6093"/>
<path d="M17.1 33C16.7 33 16.3 32.7 16.3 32.2V29.3C16.3 28.9 16.6 28.5 17.1 28.5C17.6 28.5 17.9 28.8 17.9 29.3V32.2C17.8 32.6 17.5 33 17.1 33Z" fill="#FF88AE"/>
<path d="M21.0001 33C20.6001 33 20.2001 32.7 20.2001 32.2V25.7C20.2001 25.3 20.6001 25 21.0001 25C21.4001 25 21.8001 25.3 21.8001 25.8V32.3C21.7001 32.6 21.4001 33 21.0001 33Z" fill="#FF88AE"/>
<path d="M24.9001 33C24.5001 33 24.1001 32.7 24.1001 32.2V25.7C24.1001 25.3 24.4001 24.9 24.9001 24.9C25.4001 24.9 25.7001 25.2 25.7001 25.7V32.2C25.6001 32.6 25.3001 33 24.9001 33Z" fill="#FF88AE"/>
<path d="M28.7 33.0001C28.3 33.0001 27.9 32.7001 27.9 32.2001V26.5001C27.9 26.1001 28.2 25.7001 28.7 25.7001C29.2 25.7001 29.5 26.0001 29.5 26.5001V32.2001C29.5 32.6001 29.2 33.0001 28.7 33.0001Z" fill="#FF88AE"/>
<path d="M32.6 33C32.2 33 31.8 32.7 31.8 32.2V22.7C31.8 22.3 32.1 21.9 32.6 21.9C33.1 21.9 33.4 22.2 33.4 22.7V32.2C33.4 32.6 33 33 32.6 33Z" fill="#FF88AE"/>
</g>
<defs>
<clipPath id="clip0_101_3225">
<rect width="22.6" height="22.5" fill="white" transform="translate(13 13)"/>
</clipPath>
</defs>
</svg>
