<svg width="48" height="48" viewBox="0 0 48 48" fill="none" xmlns="http://www.w3.org/2000/svg">
<rect width="48" height="48" rx="20" fill="white"/>
<g clip-path="url(#clip0_101_3236)">
<path d="M19.5001 27.8C19.1001 27.8 18.7001 27.5 18.7001 27V22.1C18.7001 21.7 19.0001 21.3 19.5001 21.3C20.0001 21.3 20.3001 21.6 20.3001 22.1V27C20.2001 27.5 19.9001 27.8 19.5001 27.8Z" fill="#FF88AE"/>
<path d="M22.5001 27.8C22.1001 27.8 21.7001 27.5 21.7001 27V20.4C21.7001 20 22.0001 19.6 22.5001 19.6C23.0001 19.6 23.3001 19.9 23.3001 20.4V27C23.3001 27.5 23.0001 27.8 22.5001 27.8Z" fill="#FF88AE"/>
<path d="M25.6 27.8C25.2 27.8 24.8 27.5 24.8 27V22.7C24.8 22.3 25.1 21.9 25.6 21.9C26.1 21.9 26.4 22.2 26.4 22.7V27.1C26.4 27.5 26 27.8 25.6 27.8Z" fill="#FF88AE"/>
<path d="M28.7 27.8C28.3 27.8 27.9 27.5 27.9 27V19.8C28 19.4 28.3 19 28.7 19C29.1 19 29.5 19.3 29.5 19.8V27.1C29.5 27.5 29.1 27.8 28.7 27.8Z" fill="#FF88AE"/>
<path d="M30.4 27.8H18.1C17.7 27.8 17.3 27.5 17.3 27C17.3 26.5 17.6 26.2 18.1 26.2H30.3C30.7 26.2 31.1 26.5 31.1 27C31.1 27.5 30.8 27.8 30.4 27.8Z" fill="#FF88AE"/>
<path d="M27.7 34.9H20.9C20.5 34.9 20.1 34.6 20.1 34.1C20.1 33.6 20.4 33.3 20.9 33.3H27.7C28.1 33.3 28.5 33.6 28.5 34.1C28.5 34.6 28.1 34.9 27.7 34.9Z" fill="#FF6093"/>
<path d="M32.7 32.1H15.9C14.3 32.1 13 31 13 29.6V16.5C13 15.1 14.3 14 15.9 14H32.7C34.3 14 35.6 15.1 35.6 16.5V25.5C35.6 25.9 35.3 26.3 34.8 26.3C34.3 26.3 34 26 34 25.6V16.6C34 16 33.4 15.6 32.6 15.6H15.9C15.2 15.6 14.5 16.1 14.5 16.6V29.7C14.5 30.3 15.1 30.7 15.9 30.7H32.7C33.4 30.7 34.1 30.2 34.1 29.7V27.9C34.1 27.5 34.4 27.1 34.9 27.1C35.4 27.1 35.7 27.4 35.7 27.9V29.7C35.5 31 34.2 32.1 32.7 32.1Z" fill="#FF6093"/>
</g>
<defs>
<clipPath id="clip0_101_3236">
<rect width="22.5" height="20.9" fill="white" transform="translate(13 14)"/>
</clipPath>
</defs>
</svg>
