<svg width="48" height="48" viewBox="0 0 48 48" fill="none" xmlns="http://www.w3.org/2000/svg">
<rect width="48" height="48" rx="20" fill="white"/>
<g clip-path="url(#clip0_101_3229)">
<path d="M34.8 21.5H31C30.6 21.5 30.2 21.2 30.2 20.7C30.2 20.2 30.5 20 30.9 20H32.2L24.2 14.7L16.2 20H28.9C29.3 20 29.7 20.3 29.7 20.8C29.7 21.3 29.4 21.6 28.9 21.6H13.8C13.4 21.5 13.1 21.3 13 20.9C12.9 20.6 13 20.2 13.3 20.1L23.8 13.1C24.1 12.9 24.4 12.9 24.6 13.1L35.1 20.1C35.4 20.3 35.5 20.6 35.4 20.9C35.4 21.3 35.1 21.5 34.8 21.5Z" fill="#FF6093"/>
<path d="M34.8 23.6H13.8C13.3 23.6 13 23.3 13 22.9C13 22.5 13.3 22.1 13.8 22.1H34.8C35.2 22.1 35.6 22.4 35.6 22.9C35.6 23.4 35.2 23.6 34.8 23.6Z" fill="#FF6093"/>
<path d="M34.8 35.5H13.8C13.4 35.5 13 35.2 13 34.7C13 34.2 13.3 34 13.8 34H34.8C35.2 34 35.6 34.3 35.6 34.8C35.6 35.3 35.2 35.5 34.8 35.5Z" fill="#FF6093"/>
<path d="M14.6 33.4C14.2 33.4 13.8 33.1 13.8 32.6V22.9C13.8 22.5 14.1 22.1 14.6 22.1C15.1 22.1 15.4 22.4 15.4 22.9V32.7C15.4 33.1 15.1 33.4 14.6 33.4Z" fill="#FF6093"/>
<path d="M33.9 33.4C33.5 33.4 33.1 33.1 33.1 32.6V22.9C33.1 22.5 33.4 22.1 33.9 22.1C34.4 22.1 34.7 22.4 34.7 22.9V32.7C34.6 33.1 34.3 33.4 33.9 33.4Z" fill="#FF6093"/>
<path d="M18.9 33.4C18.5 33.4 18.1 33.1 18.1 32.6V22.9C18.1 22.5 18.4 22.1 18.9 22.1C19.4 22.1 19.7 22.4 19.7 22.9V32.7C19.7 33.1 19.4 33.4 18.9 33.4Z" fill="#FF6093"/>
<path d="M29.6 33.4C29.2 33.4 28.8 33.1 28.8 32.6V22.9C28.8 22.5 29.1 22.1 29.6 22.1C30.1 22.1 30.4 22.4 30.4 22.9V32.7C30.3 33.1 30 33.4 29.6 33.4Z" fill="#FF6093"/>
</g>
<defs>
<clipPath id="clip0_101_3229">
<rect width="22.5" height="22.5" fill="white" transform="translate(13 13)"/>
</clipPath>
</defs>
</svg>
