<svg width="48" height="48" viewBox="0 0 48 48" fill="none" xmlns="http://www.w3.org/2000/svg">
<rect width="48" height="48" rx="20" fill="white"/>
<g clip-path="url(#clip0_101_3242)">
<path d="M34.4 35.5H16C15.6 35.5 15.2 35.2 15.2 34.7V33.8C15.2 33.4 15.5 33 16 33C16.5 33 16.8 33.3 16.8 33.8V34H33.7V20.2H28.7C28.3 20.2 27.9 19.9 27.9 19.4V14.4H16.7V28.4C16.7 28.8 16.4 29.2 15.9 29.2C15.4 29.2 15.1 28.9 15.1 28.4V13.8C15.2 13.3 15.6 13 16 13H28.6C29 13 29.4 13.3 29.4 13.8V18.8H34.4C34.8 18.8 35.2 19.1 35.2 19.6V34.9C35.2 35.2 34.8 35.5 34.4 35.5Z" fill="#FF6093"/>
<path d="M31.1999 23.8H19.1999C18.7999 23.8 18.3999 23.5 18.3999 23C18.3999 22.5 18.6999 22.2 19.1999 22.2H31.1999C31.5999 22.2 31.9999 22.5 31.9999 23C31.9999 23.5 31.5999 23.8 31.1999 23.8Z" fill="#FF6093"/>
<path d="M31.2 27.9H25.3C24.9 27.9 24.5 27.6 24.5 27.1C24.5 26.6 24.8 26.3 25.3 26.3H31.2C31.6 26.3 32 26.6 32 27.1C32 27.6 31.6 27.9 31.2 27.9Z" fill="#FF6093"/>
<path d="M25.6999 19.8H19.1999C18.7999 19.8 18.3999 19.5 18.3999 19C18.3999 18.5 18.6999 18.2 19.1999 18.2H25.6999C26.0999 18.2 26.4999 18.5 26.4999 19C26.4999 19.5 26.0999 19.8 25.6999 19.8Z" fill="#FF6093"/>
<path d="M31.1999 31.9H21.0999C20.6999 31.9 20.2999 31.6 20.2999 31.1C20.2999 30.6 20.5999 30.3 21.0999 30.3H31.1999C31.5999 30.3 31.9999 30.6 31.9999 31.1C31.9999 31.6 31.5999 31.9 31.1999 31.9Z" fill="#FF6093"/>
<path d="M34.4 20.2C34.2 20.2 34 20.1 33.9 20L28.1 14.3C27.8 14 27.8 13.5 28.1 13.2C28.4 12.9 28.9 12.9 29.2 13.2L34.9 19C35.2 19.3 35.2 19.8 34.9 20.1C34.8 20.2 34.6 20.2 34.4 20.2Z" fill="#FF88AE"/>
<path d="M16 32.7H15.9C15.7 32.7 15.5 32.5 15.4 32.4L14.2 30.5C14 30.1 14.1 29.7 14.4 29.5C14.7 29.3 15.2 29.4 15.4 29.7L16.2 30.9L22.3 26.1C22.6 25.8 23.1 25.9 23.4 26.2C23.7 26.5 23.6 27 23.3 27.3L16.5 32.6C16.3 32.7 16.1 32.7 16 32.7Z" fill="#FF88AE"/>
</g>
<defs>
<clipPath id="clip0_101_3242">
<rect width="21.2" height="22.5" fill="white" transform="translate(14 13)"/>
</clipPath>
</defs>
</svg>
