<svg width="48" height="48" viewBox="0 0 48 48" fill="none" xmlns="http://www.w3.org/2000/svg">
<rect width="48" height="48" rx="20" fill="white"/>
<g clip-path="url(#clip0_159_2580)">
<path d="M15.0464 33.4688H24.5157C24.7746 33.4688 24.9844 33.2589 24.9844 33C24.9844 32.7411 24.7746 32.5312 24.5157 32.5312H15.0464C14.7877 32.5312 14.5776 32.7411 14.5776 33C14.5776 33.2589 14.7877 33.4688 15.0464 33.4688Z" fill="#FF6093"/>
<path d="M15.0464 30.8438C15.1698 30.8438 15.2906 30.7936 15.3778 30.7064C15.465 30.6193 15.5151 30.4982 15.5151 30.375C15.5151 30.2518 15.4651 30.1307 15.3778 30.0436C15.2906 29.9564 15.1698 29.9062 15.0464 29.9062C14.9232 29.9062 14.8021 29.9564 14.7151 30.0436C14.6278 30.1307 14.5776 30.2518 14.5776 30.375C14.5776 30.4982 14.6278 30.6193 14.7151 30.7064C14.8021 30.7936 14.9232 30.8438 15.0464 30.8438Z" fill="#FF6093"/>
<path d="M24.5156 29.9062H17.1094C16.8505 29.9062 16.6406 30.1161 16.6406 30.375C16.6406 30.6339 16.8505 30.8438 17.1094 30.8438H24.5156C24.7745 30.8438 24.9844 30.6339 24.9844 30.375C24.9844 30.1161 24.7745 29.9062 24.5156 29.9062Z" fill="#FF6093"/>
<rect x="-2" y="-1" width="48" height="48" rx="20" fill="white"/>
<path d="M31.4062 16.7404V34.5938C31.4062 35.1116 30.9866 35.5312 30.4688 35.5312H13.4062C12.8884 35.5312 12.4688 35.1116 12.4688 34.5938V13.4062C12.4688 12.8884 12.8884 12.4688 13.4062 12.4688H27.1406L31.4062 16.7404Z" fill="white"/>
<path d="M30.5142 23.1533H34.8999C35.2487 23.1533 35.5312 23.436 35.5312 23.7847V34.8999C35.5312 35.2485 35.2487 35.5312 34.8999 35.5312H30.5142C30.1655 35.5312 29.8828 35.2485 29.8828 34.8999V23.7847C29.8828 23.436 30.1655 23.1533 30.5142 23.1533Z" fill="#FF88AE"/>
<path d="M27.1406 12.4746V15.7905C27.1406 16.3149 27.5658 16.7402 28.0904 16.7402H31.4062L27.1406 12.4746Z" fill="#FF88AE"/>
<path d="M24.5156 27.2812H15C14.7411 27.2812 14.5312 27.4911 14.5312 27.75C14.5312 28.0089 14.7411 28.2188 15 28.2188H24.5156C24.7745 28.2188 24.9844 28.0089 24.9844 27.75C24.9844 27.4911 24.7745 27.2812 24.5156 27.2812Z" fill="#FF6093"/>
<path d="M14.7151 24.7936C14.6278 24.8807 14.5776 25.0018 14.5776 25.125C14.5776 25.2482 14.6278 25.3693 14.7151 25.4564C14.8021 25.5436 14.9232 25.5938 15.0464 25.5938C15.1698 25.5938 15.2906 25.5436 15.3778 25.4564C15.465 25.3693 15.5151 25.2488 15.5151 25.125C15.5151 25.0018 15.4651 24.8807 15.3778 24.7936C15.2906 24.7064 15.1698 24.6562 15.0464 24.6562C14.9232 24.6562 14.8021 24.7064 14.7151 24.7936Z" fill="#FF6093"/>
<path d="M24.5156 24.6562H17.1094C16.8505 24.6562 16.6406 24.8661 16.6406 25.125C16.6406 25.3839 16.8505 25.5938 17.1094 25.5938H24.5156C24.7745 25.5938 24.9844 25.3839 24.9844 25.125C24.9844 24.8661 24.7745 24.6562 24.5156 24.6562Z" fill="#FF6093"/>
<path d="M17.5056 17.6162H15C14.7411 17.6162 14.5312 17.826 14.5312 18.085C14.5312 18.3439 14.7411 18.5537 15 18.5537H15.7841V22.0596C15.7841 22.3185 15.9939 22.5284 16.2528 22.5284C16.5117 22.5284 16.7216 22.3185 16.7216 22.0596V18.5537H17.5056C17.7645 18.5537 17.9744 18.3439 17.9744 18.085C17.9744 17.826 17.7645 17.6162 17.5056 17.6162Z" fill="#FF6093"/>
<path d="M18.2429 22.4916C18.3026 22.5171 18.3649 22.529 18.4258 22.529C18.6084 22.529 18.7818 22.4219 18.8576 22.2435L19.1572 21.538H21.0461L21.3456 22.2435C21.4469 22.4818 21.7219 22.5929 21.9603 22.4916C22.1985 22.3904 22.3097 22.1152 22.2084 21.877L20.533 17.9321C20.4596 17.7589 20.2897 17.6465 20.1016 17.6465C19.9136 17.6465 19.7436 17.7589 19.6702 17.9321L17.9946 21.877C17.8935 22.1154 18.0047 22.3906 18.2429 22.4916ZM20.1016 19.3144L20.6478 20.6005H19.5554L20.1016 19.3144Z" fill="#FF6093"/>
<path d="M25.9039 17.6887C25.6851 17.55 25.3956 17.6149 25.257 17.8335L24.3914 19.198L23.5261 17.8335C23.3874 17.6149 23.098 17.55 22.8791 17.6887C22.6605 17.8273 22.5957 18.1169 22.7343 18.3356L23.8364 20.0734L22.7343 21.8111C22.5957 22.0297 22.6605 22.3194 22.8791 22.458C22.957 22.5074 23.0439 22.5309 23.1298 22.5309C23.2849 22.5309 23.4369 22.454 23.5261 22.3132L24.3914 20.9487L25.257 22.3132C25.3461 22.454 25.4981 22.5309 25.6532 22.5309C25.7391 22.5309 25.8259 22.5074 25.9039 22.458C26.1225 22.3194 26.1873 22.0297 26.0487 21.8111L24.9466 20.0732L26.0487 18.3356C26.1873 18.1169 26.1225 17.8273 25.9039 17.6887V17.6887Z" fill="#FF6093"/>
<path d="M34.7344 22.6846H27.3281C26.6303 22.6846 26.0625 23.2524 26.0625 23.9502V34.7344C26.0625 34.8479 26.0777 34.9578 26.1059 35.0625H13.4062C13.1477 35.0625 12.9375 34.8523 12.9375 34.5938V13.4062C12.9375 13.1477 13.1477 12.9375 13.4062 12.9375H26.6719V15.7906C26.6719 16.5727 27.3082 17.2092 28.0904 17.2092H30.9375V21.069C30.9375 21.3279 31.1473 21.5378 31.4062 21.5378C31.6652 21.5378 31.875 21.3279 31.875 21.069V16.7404C31.8746 16.7404 31.8743 16.7404 31.8739 16.7404C31.8739 16.6185 31.8274 16.4985 31.7377 16.4088L27.472 12.1432C27.382 12.0531 27.2613 12.0068 27.1388 12.0071C27.1395 12.0046 27.1399 12.0026 27.1406 12H13.4062C12.6308 12 12 12.6308 12 13.4062V34.5938C12 35.3692 12.6308 36 13.4062 36H34.7344C35.4322 36 36 35.4322 36 34.7344V23.9502C36 23.2524 35.4322 22.6846 34.7344 22.6846ZM28.0904 16.2717C27.8251 16.2717 27.6094 16.0558 27.6094 15.7906V13.6064L30.2745 16.2717H28.0904ZM35.0625 34.7344C35.0625 34.9153 34.9153 35.0625 34.7344 35.0625H27.3281C27.1472 35.0625 27 34.9153 27 34.7344V23.9502C27 23.7693 27.1472 23.6221 27.3281 23.6221H34.7344C34.9153 23.6221 35.0625 23.7693 35.0625 23.9502V34.7344Z" fill="#FF6093"/>
<path d="M33.6562 24.5596H28.4062C28.1473 24.5596 27.9375 24.7694 27.9375 25.0283V26.9033C27.9375 27.1622 28.1473 27.3721 28.4062 27.3721H33.6562C33.9152 27.3721 34.125 27.1622 34.125 26.9033V25.0283C34.125 24.7694 33.9152 24.5596 33.6562 24.5596ZM33.1875 26.4346H28.875V25.4971H33.1875V26.4346Z" fill="#FF6093"/>
<path d="M28.9688 28.6846H28.4062C28.1473 28.6846 27.9375 28.8944 27.9375 29.1533C27.9375 29.4122 28.1473 29.6221 28.4062 29.6221H28.9688C29.2277 29.6221 29.4375 29.4122 29.4375 29.1533C29.4375 28.8944 29.2277 28.6846 28.9688 28.6846Z" fill="#FF6093"/>
<path d="M31.3125 28.6846H30.75C30.4911 28.6846 30.2812 28.8944 30.2812 29.1533C30.2812 29.4122 30.4911 29.6221 30.75 29.6221H31.3125C31.5714 29.6221 31.7812 29.4122 31.7812 29.1533C31.7812 28.8944 31.5714 28.6846 31.3125 28.6846Z" fill="#FF6093"/>
<path d="M33.6562 28.6846H33.0938C32.8348 28.6846 32.625 28.8944 32.625 29.1533C32.625 29.4122 32.8348 29.6221 33.0938 29.6221H33.6562C33.9152 29.6221 34.125 29.4122 34.125 29.1533C34.125 28.8944 33.9152 28.6846 33.6562 28.6846Z" fill="#FF6093"/>
<path d="M28.9688 30.9346H28.4062C28.1473 30.9346 27.9375 31.1444 27.9375 31.4033C27.9375 31.6622 28.1473 31.8721 28.4062 31.8721H28.9688C29.2277 31.8721 29.4375 31.6622 29.4375 31.4033C29.4375 31.1444 29.2277 30.9346 28.9688 30.9346Z" fill="#FF6093"/>
<path d="M31.3125 30.9346H30.75C30.4911 30.9346 30.2812 31.1444 30.2812 31.4033C30.2812 31.6622 30.4911 31.8721 30.75 31.8721H31.3125C31.5714 31.8721 31.7812 31.6622 31.7812 31.4033C31.7812 31.1444 31.5714 30.9346 31.3125 30.9346Z" fill="#FF6093"/>
<path d="M33.6562 30.9346H33.0938C32.8348 30.9346 32.625 31.1444 32.625 31.4033C32.625 31.6622 32.8348 31.8721 33.0938 31.8721H33.6562C33.9152 31.8721 34.125 31.6622 34.125 31.4033C34.125 31.1444 33.9152 30.9346 33.6562 30.9346Z" fill="#FF6093"/>
<path d="M28.9688 33.1846H28.4062C28.1473 33.1846 27.9375 33.3944 27.9375 33.6533C27.9375 33.9122 28.1473 34.1221 28.4062 34.1221H28.9688C29.2277 34.1221 29.4375 33.9122 29.4375 33.6533C29.4375 33.3944 29.2277 33.1846 28.9688 33.1846Z" fill="#FF6093"/>
<path d="M31.3125 33.1846H30.75C30.4911 33.1846 30.2812 33.3944 30.2812 33.6533C30.2812 33.9122 30.4911 34.1221 30.75 34.1221H31.3125C31.5714 34.1221 31.7812 33.9122 31.7812 33.6533C31.7812 33.3944 31.5714 33.1846 31.3125 33.1846Z" fill="#FF6093"/>
<path d="M33.6562 33.1846H33.0938C32.8348 33.1846 32.625 33.3944 32.625 33.6533C32.625 33.9122 32.8348 34.1221 33.0938 34.1221H33.6562C33.9152 34.1221 34.125 33.9122 34.125 33.6533C34.125 33.3944 33.9152 33.1846 33.6562 33.1846Z" fill="#FF6093"/>
</g>
<defs>
<clipPath id="clip0_159_2580">
<rect width="24" height="24" fill="white" transform="translate(12 12)"/>
</clipPath>
</defs>
</svg>
