<svg width="48" height="48" viewBox="0 0 48 48" fill="none" xmlns="http://www.w3.org/2000/svg">
<rect width="48" height="48" rx="20" fill="white"/>
<g clip-path="url(#clip0_101_3245)">
<path d="M22.8 17.5H21C20.6 17.5 20.2 17.2 20.2 16.7C20.2 16.2 20.6 16 21 16H22.8C23.2 16 23.6 16.3 23.6 16.8C23.6 17.3 23.3 17.5 22.8 17.5Z" fill="#FF88AE"/>
<path d="M27.4999 17.5H25.6999C25.2999 17.5 24.8999 17.2 24.8999 16.7C24.8999 16.2 25.2999 16 25.6999 16H27.4999C27.8999 16 28.2999 16.3 28.2999 16.8C28.2999 17.3 27.8999 17.5 27.4999 17.5Z" fill="#FF88AE"/>
<path d="M22.8 20.4H21C20.6 20.4 20.2 20 20.2 19.6C20.2 19.2 20.6 18.9 21 18.9H22.8C23.2 18.9 23.6 19.2 23.6 19.7C23.6 20.2 23.3 20.4 22.8 20.4Z" fill="#FF88AE"/>
<path d="M27.4999 20.4H25.6999C25.2999 20.4 24.8999 20.1 24.8999 19.6C24.8999 19.1 25.1999 18.8 25.6999 18.8H27.4999C27.8999 18.8 28.2999 19.1 28.2999 19.6C28.2999 20.1 27.8999 20.4 27.4999 20.4Z" fill="#FF88AE"/>
<path d="M22.8 23.2H21C20.6 23.2 20.2 22.9 20.2 22.4C20.2 21.9 20.6 21.7 21 21.7H22.8C23.2 21.7 23.6 22 23.6 22.5C23.6 23 23.3 23.2 22.8 23.2Z" fill="#FF88AE"/>
<path d="M27.4999 23.2H25.6999C25.2999 23.2 24.8999 22.9 24.8999 22.4C24.8999 21.9 25.1999 21.6 25.6999 21.6H27.4999C27.8999 21.6 28.2999 21.9 28.2999 22.4C28.2999 22.9 27.8999 23.2 27.4999 23.2Z" fill="#FF88AE"/>
<path d="M22.8 26.1H21C20.6 26.1 20.2 25.8 20.2 25.3C20.2 24.8 20.5 24.5 21 24.5H22.8C23.2 24.5 23.6 24.8 23.6 25.3C23.6 25.8 23.3 26.1 22.8 26.1Z" fill="#FF88AE"/>
<path d="M27.4999 26.1H25.6999C25.2999 26.1 24.8999 25.8 24.8999 25.3C24.8999 24.8 25.1999 24.5 25.6999 24.5H27.4999C27.8999 24.5 28.2999 24.8 28.2999 25.3C28.2999 25.8 27.8999 26.1 27.4999 26.1Z" fill="#FF88AE"/>
<path d="M34.8 35.6H13.7C13.3 35.6 13 35.3 13 34.9V20C13 19.6 13.3 19.3 13.7 19.3H17.9C18.3 19.3 18.6 19.6 18.6 20C18.6 20.4 18.3 20.8 17.9 20.8H14.5V34.2H34.1V20.8H30.7C30.3 20.8 30 20.5 30 20.1C30 19.7 30.3 19.4 30.7 19.4H34.9C35.3 19.4 35.6 19.7 35.6 20.1V34.9C35.5 35.3 35.2 35.6 34.8 35.6Z" fill="#FF6093"/>
<path d="M30.6 33C30.2 33 29.9 32.7 29.9 32.3V14.5H18.7V32.3C18.7 32.7 18.4 33 18 33C17.6 33 17.3 32.7 17.3 32.3V13.8C17.2 13.3 17.5 13 17.9 13H30.6C30.8 13 31 13.1 31.1 13.2C31.2 13.3 31.3 13.5 31.3 13.7V32.2C31.4 32.7 31 33 30.6 33Z" fill="#FF6093"/>
<path d="M26.9 35.6C26.5 35.6 26.2 35.3 26.2 34.9V29.4H22.4V34.9C22.4 35.3 22.1 35.6 21.7 35.6C21.3 35.6 21 35.3 21 34.9V28.7C21 28.3 21.3 28 21.7 28H27C27.4 28 27.7 28.3 27.7 28.7V34.9C27.7 35.3 27.3 35.6 26.9 35.6Z" fill="#FF6093"/>
</g>
<defs>
<clipPath id="clip0_101_3245">
<rect width="22.5" height="22.6" fill="white" transform="translate(13 13)"/>
</clipPath>
</defs>
</svg>
