<svg width="48" height="48" viewBox="0 0 48 48" fill="none" xmlns="http://www.w3.org/2000/svg">
<rect width="48" height="48" rx="20" fill="white"/>
<g clip-path="url(#clip0_101_3239)">
<path d="M33.4 37.5H17C15.3 37.5 14 36.1 14 34.5V15.7C14 15.3 14.3 15 14.7 15H31C31.4 15 31.7 15.3 31.7 15.7V34.3C31.7 35.2 32.4 35.9 33.3 35.9C34.2 35.9 34.9 35.2 34.9 34.3V33.3C34.9 32.9 35.2 32.6 35.6 32.6C36 32.6 36.3 32.9 36.3 33.3V34.3C36.5 36.1 35.1 37.5 33.4 37.5ZM15.5 16.5V34.5C15.5 35.3 16.2 36 17 36H30.7C30.4 35.5 30.2 35 30.2 34.4V16.5H15.5Z" fill="#FF6093"/>
<path d="M35.7 32C35.3 32 35 31.7 35 31.3V23.7H31.4C31 23.7 30.7 23.4 30.7 23C30.7 22.6 31 22.3 31.4 22.3H35.7999C36.1999 22.3 36.5 22.6 36.5 23V31.3C36.5 31.7 36.2 32 35.7 32Z" fill="#FF6093"/>
<path d="M22.9 28.2H17.3C16.9 28.2 16.5 27.9 16.5 27.4V18.3C16.5 17.9 16.8 17.5 17.3 17.5H22.9C23.3 17.5 23.7 17.8 23.7 18.3V27.5C23.6 27.9 23.3 28.2 22.9 28.2ZM18 26.7H22.1V19H18V26.7Z" fill="#FF88AE"/>
<path d="M28.5 20.2H25C24.6 20.2 24.2 19.9 24.2 19.4C24.2 18.9 24.5 18.6 25 18.6H28.6C29 18.6 29.4 18.9 29.4 19.4C29.4 19.9 29 20.2 28.5 20.2Z" fill="#FF88AE"/>
<path d="M28.5 23.7H25C24.6 23.7 24.2 23.4 24.2 22.9C24.2 22.4 24.5 22.1 25 22.1H28.6C29 22.1 29.4 22.4 29.4 22.9C29.4 23.4 29 23.7 28.5 23.7Z" fill="#FF88AE"/>
<path d="M28.5 27.2H25C24.6 27.2 24.2 26.9 24.2 26.4C24.2 25.9 24.5 25.6 25 25.6H28.6C29 25.6 29.4 25.9 29.4 26.4C29.4 26.9 29 27.2 28.5 27.2Z" fill="#FF88AE"/>
<path d="M28.5 30.7H17.3C16.9 30.7 16.5 30.4 16.5 29.9C16.5 29.4 16.8 29.1 17.3 29.1H28.6C29 29.1 29.4 29.4 29.4 29.9C29.4 30.4 29 30.7 28.5 30.7Z" fill="#FF88AE"/>
<path d="M28.5 34.2999H17.3C16.9 34.2999 16.5 34 16.5 33.5C16.5 33 16.8 32.7 17.3 32.7H28.6C29 32.7 29.4 33 29.4 33.5C29.4 34 29 34.2999 28.5 34.2999Z" fill="#FF88AE"/>
</g>
<defs>
<clipPath id="clip0_101_3239">
<rect width="22.5" height="22.5" fill="white" transform="translate(14 15)"/>
</clipPath>
</defs>
</svg>
