<svg width="48" height="48" viewBox="0 0 48 48" fill="none" xmlns="http://www.w3.org/2000/svg">
<rect width="48" height="48" rx="20" fill="white"/>
<g clip-path="url(#clip0_101_3248)">
<path fill-rule="evenodd" clip-rule="evenodd" d="M28 33.4V35.4C28 36.0628 27.4628 36.6 26.8 36.6H15.6C14.9373 36.6 14.4 36.0628 14.4 35.4V33.4C14.4 34.0628 14.9373 34.6 15.6 34.6H26.8C27.4628 34.6 28 34.0628 28 33.4Z" fill="white"/>
<path fill-rule="evenodd" clip-rule="evenodd" d="M26.8 34.6V35.4C26.8 36.0628 26.2627 36.6 25.6 36.6H26.8C27.4627 36.6 28 36.0628 28 35.4V33.4C28 34.0628 27.4627 34.6 26.8 34.6Z" fill="white"/>
<path d="M26.8 13.4H15.6C14.9373 13.4 14.4 13.9373 14.4 14.6V33.4C14.4 34.0628 14.9373 34.6 15.6 34.6H26.8C27.4628 34.6 28 34.0628 28 33.4V14.6C28 13.9373 27.4628 13.4 26.8 13.4Z" fill="white"/>
<path fill-rule="evenodd" clip-rule="evenodd" d="M25.2 13.4L24.0556 14.6208C23.8287 14.8628 23.5117 15.0001 23.18 15H19.22C18.8882 15.0001 18.5713 14.8628 18.3444 14.6208L17.2 13.4H25.2Z" fill="white"/>
<path d="M25.6 23.4H20.8C20.3582 23.4 20 23.7582 20 24.2C20 24.6419 20.3582 25 20.8 25H25.6C26.0418 25 26.4 24.6419 26.4 24.2C26.4 23.7582 26.0418 23.4 25.6 23.4Z" fill="white"/>
<path fill-rule="evenodd" clip-rule="evenodd" d="M25.6 23.4H24.4C24.8419 23.4 25.2 23.7582 25.2 24.2C25.2 24.6419 24.8419 25 24.4 25H25.6C26.0419 25 26.4 24.6419 26.4 24.2C26.4 23.7582 26.0419 23.4 25.6 23.4Z" fill="white"/>
<path d="M22.4 17H18.4C17.7372 17 17.2 17.5373 17.2 18.2V22.2C17.2 22.8627 17.7372 23.4 18.4 23.4H22.4C23.0627 23.4 23.6 22.8627 23.6 22.2V18.2C23.6 17.5373 23.0627 17 22.4 17Z" fill="#FFE1F5"/>
<path fill-rule="evenodd" clip-rule="evenodd" d="M22.4 17H21.2C21.8627 17 22.4 17.5373 22.4 18.2V22.2C22.4 22.8627 21.8627 23.4 21.2 23.4H22.4C23.0627 23.4 23.6 22.8627 23.6 22.2V18.2C23.6 17.5373 23.0627 17 22.4 17Z" fill="white"/>
<path fill-rule="evenodd" clip-rule="evenodd" d="M25.164 29.8C25.1883 29.932 25.2003 30.0659 25.2 30.2C25.2 31.5255 24.1255 32.6 22.8 32.6C21.4745 32.6 20.4 31.5255 20.4 30.2C20.3997 30.0659 20.4118 29.932 20.436 29.8H25.164Z" fill="white"/>
<path fill-rule="evenodd" clip-rule="evenodd" d="M25.164 29.8H23.964C23.9882 29.932 24.0002 30.0659 24 30.2001C23.9982 31.293 23.2582 32.2468 22.2 32.5201C22.9184 32.7092 23.6839 32.5537 24.2716 32.0992C24.8593 31.6448 25.2023 30.943 25.2 30.2001C25.2002 30.0659 25.1882 29.932 25.164 29.8Z" fill="white"/>
<path fill-rule="evenodd" clip-rule="evenodd" d="M37.0359 29.8C37.1439 30.053 37.1997 30.3251 37.1999 30.6C37.1999 31.7046 36.3045 32.6 35.1999 32.6C34.0954 32.6 33.2 31.7046 33.2 30.6C33.2002 30.3251 33.256 30.053 33.364 29.8H37.0359Z" fill="white"/>
<path fill-rule="evenodd" clip-rule="evenodd" d="M37.036 29.8H35.836C35.9439 30.053 35.9997 30.3251 36 30.6C35.9977 31.4705 35.431 32.2389 34.6 32.498C34.7935 32.5629 34.9959 32.5973 35.2 32.6C36.3045 32.6 37.2 31.7046 37.2 30.6C37.1997 30.3251 37.1439 30.053 37.036 29.8Z" fill="white"/>
<path fill-rule="evenodd" clip-rule="evenodd" d="M20.7999 25C20.7999 25 18.9599 26.1048 18.8095 29.3748C18.8036 29.4849 18.843 29.5926 18.9186 29.673C18.9941 29.7533 19.0993 29.7992 19.2095 29.8H37.1999C37.4208 29.8 37.5999 29.6209 37.5999 29.4C37.5999 28.0745 36.5254 27 35.1999 27H35.1919C35.1079 24.9074 34.5644 22.859 33.5999 21H31.9999C32.614 22.9243 32.9799 24.9191 33.0887 26.936C33.107 27.2654 32.9886 27.5877 32.7615 27.827C32.5344 28.0662 32.2186 28.2012 31.8887 28.2H27.2243C26.9249 28.2053 26.6351 28.0938 26.4163 27.8892C25.8943 27.3815 25.5999 26.6842 25.5999 25.956V25H20.7999Z" fill="white"/>
<path fill-rule="evenodd" clip-rule="evenodd" d="M35.2 27H35.192C35.108 24.9074 34.5644 22.859 33.6 21H32.4C33.3644 22.859 33.908 24.9074 33.992 27H34C35.3255 27 36.4 28.0745 36.4 29.4C36.4 29.6209 36.2209 29.8 36 29.8H37.2C37.4209 29.8 37.6 29.6209 37.6 29.4C37.6 28.0745 36.5255 27 35.2 27Z" fill="white"/>
<path fill-rule="evenodd" clip-rule="evenodd" d="M34.4001 18.2V20.6001C34.4001 20.821 34.221 21.0001 34.0001 21.0001H33.6001C33.0575 20.6562 32.7496 20.0404 32.8 19.4001C32.7496 18.7597 33.0575 18.1439 33.6001 17.8H34.0001C34.1061 17.8 34.2079 17.8422 34.2829 17.9172C34.3579 17.9922 34.4001 18.094 34.4001 18.2Z" fill="white"/>
<path fill-rule="evenodd" clip-rule="evenodd" d="M33.5999 21.0001H31.9999C31.5587 20.9987 31.2013 20.6413 31.2 20.2001V18.6001C31.2013 18.1588 31.5587 17.8014 31.9999 17.8H33.5999C33.0574 18.1439 32.7495 18.7597 32.7999 19.4001C32.7495 20.0404 33.0574 20.6562 33.5999 21.0001Z" fill="#FFE1F5"/>
<path fill-rule="evenodd" clip-rule="evenodd" d="M19.2 17H21.6V19C21.6 19.2209 21.4209 19.4 21.2 19.4H19.6C19.379 19.4 19.2 19.2209 19.2 19V17Z" fill="#FFE1F5"/>
<path fill-rule="evenodd" clip-rule="evenodd" d="M14 14.6H14.8V17.8H14V14.6Z" fill="white"/>
<path d="M14.4 16.7001C14.6761 16.7001 14.9 16.4762 14.9 16.2C14.9 15.9239 14.6761 15.7 14.4 15.7C14.1239 15.7 13.9 15.9239 13.9 16.2C13.9 16.4762 14.1239 16.7001 14.4 16.7001Z" fill="#FF6093" stroke="#FF6093" stroke-width="0.2"/>
<path d="M20.49 27.8426C20.2928 28.0359 20.2895 28.3525 20.4828 28.5498C20.6761 28.7471 20.9927 28.7503 21.19 28.557L21.19 28.557C22.0844 27.6804 23.5157 27.6804 24.41 28.557L24.4101 28.557C24.6073 28.7503 24.924 28.7471 25.1173 28.5498C25.3106 28.3525 25.3073 28.0359 25.11 27.8426C24.494 27.2368 23.664 26.8982 22.8 26.9M20.49 27.8426C20.49 27.8426 20.49 27.8426 20.4901 27.8426L20.56 27.914M20.49 27.8426C20.49 27.8427 20.49 27.8427 20.4899 27.8427L20.56 27.914M20.49 27.8426C21.1061 27.2368 21.936 26.8982 22.8 26.9M20.56 27.914C20.4022 28.0687 20.3996 28.322 20.5542 28.4798C20.7089 28.6377 20.9622 28.6403 21.12 28.4856L20.56 27.914ZM22.8 26.9C22.8 26.9 22.7999 26.9 22.7998 26.9L22.8 27L22.8003 26.9C22.8002 26.9 22.8001 26.9 22.8 26.9Z" fill="#FF6093" stroke="#FF6093" stroke-width="0.2"/>
<mask id="path-22-outside-1_101_3248" maskUnits="userSpaceOnUse" x="13" y="12" width="26" height="26" fill="black">
<rect fill="white" x="13" y="12" width="26" height="26"/>
<path d="M38 29.4C37.9979 27.9995 36.9629 26.8152 35.5752 26.6256C35.4554 24.8031 34.9981 23.0187 34.2268 21.3632C34.5653 21.2631 34.7982 20.953 34.8 20.6V18.2C34.8 17.7582 34.4418 17.4 34 17.4H32C31.3373 17.4 30.8 17.9373 30.8 18.6V19H29.6C29.3791 19 29.2 19.1791 29.2 19.4C29.2 19.6209 29.3791 19.8 29.6 19.8H30.8V20.2C30.8023 20.7418 31.1673 21.2148 31.6908 21.3544C32.2507 23.1749 32.5865 25.057 32.6908 26.9588C32.7024 27.178 32.6231 27.3922 32.4718 27.5512C32.3204 27.7101 32.1103 27.7997 31.8908 27.7988H28.4V14.6C28.4 13.7163 27.6837 13 26.8 13H15.6C14.7163 13 14 13.7163 14 14.6C14 14.7429 14.0762 14.875 14.2 14.9464C14.3238 15.0179 14.4762 15.0179 14.6 14.9464C14.7238 14.875 14.8 14.7429 14.8 14.6C14.8 14.1582 15.1582 13.8 15.6 13.8H17.0268L18.0528 14.8944C18.3558 15.2163 18.7779 15.3992 19.22 15.4H23.18C23.6221 15.3995 24.0444 15.2166 24.3472 14.8944L25.3732 13.8H26.8C27.2418 13.8 27.6 14.1582 27.6 14.6V27.8H27.2244C27.0292 27.8047 26.8397 27.7341 26.6952 27.6028C26.2521 27.1693 26.0016 26.5759 26 25.956V25.3264C26.5506 25.1325 26.8811 24.5697 26.7822 23.9943C26.6832 23.419 26.1838 22.9989 25.6 23H23.7776C23.9216 22.7579 23.9983 22.4817 24 22.2V18.2C24 17.3163 23.2837 16.6 22.4 16.6H18.4C17.5163 16.6 16.8 17.3163 16.8 18.2V22.2C16.8017 22.4817 16.8784 22.7579 17.0224 23H16.4C16.1791 23 16 23.1791 16 23.4C16 23.6209 16.1791 23.8 16.4 23.8H19.6736C19.4974 24.2728 19.6448 24.8053 20.0392 25.12C19.4268 25.7412 18.5152 27.04 18.4096 29.3568C18.4003 29.5777 18.481 29.7929 18.6332 29.9532C18.7833 30.1112 18.9917 30.2004 19.2096 30.2H20C19.9998 30.9533 20.3044 31.6747 20.8444 32.2H16.8C16.5791 32.2 16.4 32.3791 16.4 32.6C16.4 32.8209 16.5791 33 16.8 33H27.6V33.4C27.6 33.8418 27.2418 34.2 26.8 34.2H15.6C15.1582 34.2 14.8 33.8418 14.8 33.4V17.8C14.8 17.5791 14.6209 17.4 14.4 17.4C14.1791 17.4 14 17.5791 14 17.8V35.4C14 36.2837 14.7163 37 15.6 37H26.8C27.6837 37 28.4 36.2837 28.4 35.4V33H37.6C37.8209 33 38 32.8209 38 32.6C38 32.3791 37.8209 32.2 37.6 32.2H36.984C37.3803 31.7613 37.5998 31.1912 37.6 30.6C37.6001 30.4372 37.5837 30.2748 37.5512 30.1152C37.8251 29.982 37.9992 29.7045 38 29.4ZM23.7632 14.3472C23.6121 14.5084 23.401 14.5999 23.18 14.6H19.22C18.999 14.5997 18.7878 14.5083 18.6364 14.3472L18.1236 13.8H24.2764L23.7632 14.3472ZM34 20.6H33.7172C33.3588 20.3088 33.1656 19.8605 33.2 19.4C33.1655 18.9394 33.3589 18.491 33.7176 18.2H34V20.6ZM31.6 18.6C31.6 18.3791 31.7791 18.2 32 18.2H32.6896C32.4918 18.5686 32.3921 18.9818 32.4 19.4C32.3921 19.8182 32.4918 20.2314 32.6896 20.6H32C31.7791 20.6 31.6 20.4209 31.6 20.2V18.6ZM21.2 17.4V19H19.6V17.4H21.2ZM17.6 22.2V18.2C17.6 17.7582 17.9582 17.4 18.4 17.4H18.8V19C18.8 19.4418 19.1582 19.8 19.6 19.8H21.2C21.6418 19.8 22 19.4418 22 19V17.4H22.4C22.8418 17.4 23.2 17.7582 23.2 18.2V22.2C23.2 22.6418 22.8418 23 22.4 23H18.4C17.9582 23 17.6 22.6418 17.6 22.2ZM22.4 23.8H25.6C25.8209 23.8 26 23.9791 26 24.2C26 24.4209 25.8209 24.6 25.6 24.6H20.8C20.5791 24.6 20.4 24.4209 20.4 24.2C20.4 23.9791 20.5791 23.8 20.8 23.8H22.4ZM19.2088 29.3928C19.3288 26.7528 20.584 25.6516 20.924 25.4H25.2V25.956C25.2021 26.7918 25.5399 27.5917 26.1376 28.176C26.4303 28.4542 26.8206 28.6065 27.2244 28.6H31.8904C32.3315 28.5994 32.753 28.4178 33.0564 28.0976C33.3586 27.7798 33.5149 27.3505 33.488 26.9128C33.3861 25.0452 33.0702 23.1955 32.5464 21.4H33.3568C34.227 23.1479 34.7162 25.0606 34.792 27.0116C34.8023 27.2293 34.982 27.4005 35.2 27.4C36.304 27.4013 37.1987 28.296 37.2 29.4H37.034L19.2088 29.3928ZM20.8 30.2H24.8C24.8 31.3046 23.9046 32.2 22.8 32.2C21.6954 32.2 20.8 31.3046 20.8 30.2ZM24.7556 32.2C25.2956 31.6747 25.6002 30.9533 25.6 30.2H27.6V32.2H24.7556ZM26.8 36.2H15.6C15.1582 36.2 14.8 35.8418 14.8 35.4V34.7776C15.0421 34.9216 15.3183 34.9983 15.6 35H26.8C27.0817 34.9983 27.3579 34.9216 27.6 34.7776V35.4C27.6 35.8418 27.2418 36.2 26.8 36.2ZM28.4 30.2H32.836C32.813 30.3321 32.8009 30.4659 32.8 30.6C32.8002 31.1912 33.0197 31.7613 33.416 32.2H28.4V30.2ZM33.6 30.6C33.602 30.4649 33.6208 30.3305 33.656 30.2H36.744C36.7792 30.3305 36.798 30.4649 36.8 30.6C36.8 31.4837 36.0837 32.2 35.2 32.2C34.3163 32.2 33.6 31.4837 33.6 30.6Z"/>
</mask>
<path d="M38 29.4C37.9979 27.9995 36.9629 26.8152 35.5752 26.6256C35.4554 24.8031 34.9981 23.0187 34.2268 21.3632C34.5653 21.2631 34.7982 20.953 34.8 20.6V18.2C34.8 17.7582 34.4418 17.4 34 17.4H32C31.3373 17.4 30.8 17.9373 30.8 18.6V19H29.6C29.3791 19 29.2 19.1791 29.2 19.4C29.2 19.6209 29.3791 19.8 29.6 19.8H30.8V20.2C30.8023 20.7418 31.1673 21.2148 31.6908 21.3544C32.2507 23.1749 32.5865 25.057 32.6908 26.9588C32.7024 27.178 32.6231 27.3922 32.4718 27.5512C32.3204 27.7101 32.1103 27.7997 31.8908 27.7988H28.4V14.6C28.4 13.7163 27.6837 13 26.8 13H15.6C14.7163 13 14 13.7163 14 14.6C14 14.7429 14.0762 14.875 14.2 14.9464C14.3238 15.0179 14.4762 15.0179 14.6 14.9464C14.7238 14.875 14.8 14.7429 14.8 14.6C14.8 14.1582 15.1582 13.8 15.6 13.8H17.0268L18.0528 14.8944C18.3558 15.2163 18.7779 15.3992 19.22 15.4H23.18C23.6221 15.3995 24.0444 15.2166 24.3472 14.8944L25.3732 13.8H26.8C27.2418 13.8 27.6 14.1582 27.6 14.6V27.8H27.2244C27.0292 27.8047 26.8397 27.7341 26.6952 27.6028C26.2521 27.1693 26.0016 26.5759 26 25.956V25.3264C26.5506 25.1325 26.8811 24.5697 26.7822 23.9943C26.6832 23.419 26.1838 22.9989 25.6 23H23.7776C23.9216 22.7579 23.9983 22.4817 24 22.2V18.2C24 17.3163 23.2837 16.6 22.4 16.6H18.4C17.5163 16.6 16.8 17.3163 16.8 18.2V22.2C16.8017 22.4817 16.8784 22.7579 17.0224 23H16.4C16.1791 23 16 23.1791 16 23.4C16 23.6209 16.1791 23.8 16.4 23.8H19.6736C19.4974 24.2728 19.6448 24.8053 20.0392 25.12C19.4268 25.7412 18.5152 27.04 18.4096 29.3568C18.4003 29.5777 18.481 29.7929 18.6332 29.9532C18.7833 30.1112 18.9917 30.2004 19.2096 30.2H20C19.9998 30.9533 20.3044 31.6747 20.8444 32.2H16.8C16.5791 32.2 16.4 32.3791 16.4 32.6C16.4 32.8209 16.5791 33 16.8 33H27.6V33.4C27.6 33.8418 27.2418 34.2 26.8 34.2H15.6C15.1582 34.2 14.8 33.8418 14.8 33.4V17.8C14.8 17.5791 14.6209 17.4 14.4 17.4C14.1791 17.4 14 17.5791 14 17.8V35.4C14 36.2837 14.7163 37 15.6 37H26.8C27.6837 37 28.4 36.2837 28.4 35.4V33H37.6C37.8209 33 38 32.8209 38 32.6C38 32.3791 37.8209 32.2 37.6 32.2H36.984C37.3803 31.7613 37.5998 31.1912 37.6 30.6C37.6001 30.4372 37.5837 30.2748 37.5512 30.1152C37.8251 29.982 37.9992 29.7045 38 29.4ZM23.7632 14.3472C23.6121 14.5084 23.401 14.5999 23.18 14.6H19.22C18.999 14.5997 18.7878 14.5083 18.6364 14.3472L18.1236 13.8H24.2764L23.7632 14.3472ZM34 20.6H33.7172C33.3588 20.3088 33.1656 19.8605 33.2 19.4C33.1655 18.9394 33.3589 18.491 33.7176 18.2H34V20.6ZM31.6 18.6C31.6 18.3791 31.7791 18.2 32 18.2H32.6896C32.4918 18.5686 32.3921 18.9818 32.4 19.4C32.3921 19.8182 32.4918 20.2314 32.6896 20.6H32C31.7791 20.6 31.6 20.4209 31.6 20.2V18.6ZM21.2 17.4V19H19.6V17.4H21.2ZM17.6 22.2V18.2C17.6 17.7582 17.9582 17.4 18.4 17.4H18.8V19C18.8 19.4418 19.1582 19.8 19.6 19.8H21.2C21.6418 19.8 22 19.4418 22 19V17.4H22.4C22.8418 17.4 23.2 17.7582 23.2 18.2V22.2C23.2 22.6418 22.8418 23 22.4 23H18.4C17.9582 23 17.6 22.6418 17.6 22.2ZM22.4 23.8H25.6C25.8209 23.8 26 23.9791 26 24.2C26 24.4209 25.8209 24.6 25.6 24.6H20.8C20.5791 24.6 20.4 24.4209 20.4 24.2C20.4 23.9791 20.5791 23.8 20.8 23.8H22.4ZM19.2088 29.3928C19.3288 26.7528 20.584 25.6516 20.924 25.4H25.2V25.956C25.2021 26.7918 25.5399 27.5917 26.1376 28.176C26.4303 28.4542 26.8206 28.6065 27.2244 28.6H31.8904C32.3315 28.5994 32.753 28.4178 33.0564 28.0976C33.3586 27.7798 33.5149 27.3505 33.488 26.9128C33.3861 25.0452 33.0702 23.1955 32.5464 21.4H33.3568C34.227 23.1479 34.7162 25.0606 34.792 27.0116C34.8023 27.2293 34.982 27.4005 35.2 27.4C36.304 27.4013 37.1987 28.296 37.2 29.4H37.034L19.2088 29.3928ZM20.8 30.2H24.8C24.8 31.3046 23.9046 32.2 22.8 32.2C21.6954 32.2 20.8 31.3046 20.8 30.2ZM24.7556 32.2C25.2956 31.6747 25.6002 30.9533 25.6 30.2H27.6V32.2H24.7556ZM26.8 36.2H15.6C15.1582 36.2 14.8 35.8418 14.8 35.4V34.7776C15.0421 34.9216 15.3183 34.9983 15.6 35H26.8C27.0817 34.9983 27.3579 34.9216 27.6 34.7776V35.4C27.6 35.8418 27.2418 36.2 26.8 36.2ZM28.4 30.2H32.836C32.813 30.3321 32.8009 30.4659 32.8 30.6C32.8002 31.1912 33.0197 31.7613 33.416 32.2H28.4V30.2ZM33.6 30.6C33.602 30.4649 33.6208 30.3305 33.656 30.2H36.744C36.7792 30.3305 36.798 30.4649 36.8 30.6C36.8 31.4837 36.0837 32.2 35.2 32.2C34.3163 32.2 33.6 31.4837 33.6 30.6Z" fill="#FF6093"/>
<path d="M38 29.4C37.9979 27.9995 36.9629 26.8152 35.5752 26.6256C35.4554 24.8031 34.9981 23.0187 34.2268 21.3632C34.5653 21.2631 34.7982 20.953 34.8 20.6V18.2C34.8 17.7582 34.4418 17.4 34 17.4H32C31.3373 17.4 30.8 17.9373 30.8 18.6V19H29.6C29.3791 19 29.2 19.1791 29.2 19.4C29.2 19.6209 29.3791 19.8 29.6 19.8H30.8V20.2C30.8023 20.7418 31.1673 21.2148 31.6908 21.3544C32.2507 23.1749 32.5865 25.057 32.6908 26.9588C32.7024 27.178 32.6231 27.3922 32.4718 27.5512C32.3204 27.7101 32.1103 27.7997 31.8908 27.7988H28.4V14.6C28.4 13.7163 27.6837 13 26.8 13H15.6C14.7163 13 14 13.7163 14 14.6C14 14.7429 14.0762 14.875 14.2 14.9464C14.3238 15.0179 14.4762 15.0179 14.6 14.9464C14.7238 14.875 14.8 14.7429 14.8 14.6C14.8 14.1582 15.1582 13.8 15.6 13.8H17.0268L18.0528 14.8944C18.3558 15.2163 18.7779 15.3992 19.22 15.4H23.18C23.6221 15.3995 24.0444 15.2166 24.3472 14.8944L25.3732 13.8H26.8C27.2418 13.8 27.6 14.1582 27.6 14.6V27.8H27.2244C27.0292 27.8047 26.8397 27.7341 26.6952 27.6028C26.2521 27.1693 26.0016 26.5759 26 25.956V25.3264C26.5506 25.1325 26.8811 24.5697 26.7822 23.9943C26.6832 23.419 26.1838 22.9989 25.6 23H23.7776C23.9216 22.7579 23.9983 22.4817 24 22.2V18.2C24 17.3163 23.2837 16.6 22.4 16.6H18.4C17.5163 16.6 16.8 17.3163 16.8 18.2V22.2C16.8017 22.4817 16.8784 22.7579 17.0224 23H16.4C16.1791 23 16 23.1791 16 23.4C16 23.6209 16.1791 23.8 16.4 23.8H19.6736C19.4974 24.2728 19.6448 24.8053 20.0392 25.12C19.4268 25.7412 18.5152 27.04 18.4096 29.3568C18.4003 29.5777 18.481 29.7929 18.6332 29.9532C18.7833 30.1112 18.9917 30.2004 19.2096 30.2H20C19.9998 30.9533 20.3044 31.6747 20.8444 32.2H16.8C16.5791 32.2 16.4 32.3791 16.4 32.6C16.4 32.8209 16.5791 33 16.8 33H27.6V33.4C27.6 33.8418 27.2418 34.2 26.8 34.2H15.6C15.1582 34.2 14.8 33.8418 14.8 33.4V17.8C14.8 17.5791 14.6209 17.4 14.4 17.4C14.1791 17.4 14 17.5791 14 17.8V35.4C14 36.2837 14.7163 37 15.6 37H26.8C27.6837 37 28.4 36.2837 28.4 35.4V33H37.6C37.8209 33 38 32.8209 38 32.6C38 32.3791 37.8209 32.2 37.6 32.2H36.984C37.3803 31.7613 37.5998 31.1912 37.6 30.6C37.6001 30.4372 37.5837 30.2748 37.5512 30.1152C37.8251 29.982 37.9992 29.7045 38 29.4ZM23.7632 14.3472C23.6121 14.5084 23.401 14.5999 23.18 14.6H19.22C18.999 14.5997 18.7878 14.5083 18.6364 14.3472L18.1236 13.8H24.2764L23.7632 14.3472ZM34 20.6H33.7172C33.3588 20.3088 33.1656 19.8605 33.2 19.4C33.1655 18.9394 33.3589 18.491 33.7176 18.2H34V20.6ZM31.6 18.6C31.6 18.3791 31.7791 18.2 32 18.2H32.6896C32.4918 18.5686 32.3921 18.9818 32.4 19.4C32.3921 19.8182 32.4918 20.2314 32.6896 20.6H32C31.7791 20.6 31.6 20.4209 31.6 20.2V18.6ZM21.2 17.4V19H19.6V17.4H21.2ZM17.6 22.2V18.2C17.6 17.7582 17.9582 17.4 18.4 17.4H18.8V19C18.8 19.4418 19.1582 19.8 19.6 19.8H21.2C21.6418 19.8 22 19.4418 22 19V17.4H22.4C22.8418 17.4 23.2 17.7582 23.2 18.2V22.2C23.2 22.6418 22.8418 23 22.4 23H18.4C17.9582 23 17.6 22.6418 17.6 22.2ZM22.4 23.8H25.6C25.8209 23.8 26 23.9791 26 24.2C26 24.4209 25.8209 24.6 25.6 24.6H20.8C20.5791 24.6 20.4 24.4209 20.4 24.2C20.4 23.9791 20.5791 23.8 20.8 23.8H22.4ZM19.2088 29.3928C19.3288 26.7528 20.584 25.6516 20.924 25.4H25.2V25.956C25.2021 26.7918 25.5399 27.5917 26.1376 28.176C26.4303 28.4542 26.8206 28.6065 27.2244 28.6H31.8904C32.3315 28.5994 32.753 28.4178 33.0564 28.0976C33.3586 27.7798 33.5149 27.3505 33.488 26.9128C33.3861 25.0452 33.0702 23.1955 32.5464 21.4H33.3568C34.227 23.1479 34.7162 25.0606 34.792 27.0116C34.8023 27.2293 34.982 27.4005 35.2 27.4C36.304 27.4013 37.1987 28.296 37.2 29.4H37.034L19.2088 29.3928ZM20.8 30.2H24.8C24.8 31.3046 23.9046 32.2 22.8 32.2C21.6954 32.2 20.8 31.3046 20.8 30.2ZM24.7556 32.2C25.2956 31.6747 25.6002 30.9533 25.6 30.2H27.6V32.2H24.7556ZM26.8 36.2H15.6C15.1582 36.2 14.8 35.8418 14.8 35.4V34.7776C15.0421 34.9216 15.3183 34.9983 15.6 35H26.8C27.0817 34.9983 27.3579 34.9216 27.6 34.7776V35.4C27.6 35.8418 27.2418 36.2 26.8 36.2ZM28.4 30.2H32.836C32.813 30.3321 32.8009 30.4659 32.8 30.6C32.8002 31.1912 33.0197 31.7613 33.416 32.2H28.4V30.2ZM33.6 30.6C33.602 30.4649 33.6208 30.3305 33.656 30.2H36.744C36.7792 30.3305 36.798 30.4649 36.8 30.6C36.8 31.4837 36.0837 32.2 35.2 32.2C34.3163 32.2 33.6 31.4837 33.6 30.6Z" stroke="#FF6093" stroke-width="0.4" stroke-linejoin="round" mask="url(#path-22-outside-1_101_3248)"/>
</g>
<defs>
<clipPath id="clip0_101_3248">
<rect width="24" height="24" fill="white" transform="translate(14 13)"/>
</clipPath>
</defs>
</svg>
