<svg width="48" height="48" viewBox="0 0 48 48" fill="none" xmlns="http://www.w3.org/2000/svg">
<rect width="48" height="48" rx="20" fill="white"/>
<path d="M33.75 22.125C31.062 22.125 28.875 19.938 28.875 17.25C28.875 14.562 31.062 12.375 33.75 12.375C36.438 12.375 38.625 14.562 38.625 17.25C38.625 19.938 36.438 22.125 33.75 22.125ZM33.75 14.25C32.0959 14.25 30.75 15.5959 30.75 17.25C30.75 18.9041 32.0959 20.25 33.75 20.25C35.4041 20.25 36.75 18.9041 36.75 17.25C36.75 15.5959 35.4041 14.25 33.75 14.25Z" fill="#FF88AE"/>
<path d="M19.125 18V22.875H21.375V21H22.875V18H19.125Z" fill="#FF88AE"/>
<path d="M33.75 13.875C31.8893 13.875 30.375 15.3889 30.375 17.25C30.375 19.1111 31.8893 20.625 33.75 20.625C35.6108 20.625 37.125 19.1111 37.125 17.25C37.125 15.3889 35.6108 13.875 33.75 13.875ZM34.125 19.845V19.125H33.375V19.845C32.2279 19.6796 31.3204 18.7721 31.155 17.625H31.875V16.875H31.155C31.3204 15.7279 32.2279 14.8204 33.375 14.655V15.375H34.125V14.655C35.2721 14.8204 36.1796 15.7279 36.345 16.875H35.625V17.625H36.345C36.1796 18.7721 35.2721 19.6796 34.125 19.845Z" fill="#FF6093"/>
<path d="M34.6099 15.8599L34.2319 16.2379C34.0852 16.1674 33.9232 16.125 33.75 16.125C33.5767 16.125 33.4147 16.1674 33.2681 16.2379L32.5151 15.4849L31.9849 16.0151L32.7379 16.7681C32.6674 16.9147 32.625 17.0767 32.625 17.25C32.625 17.8702 33.1297 18.375 33.75 18.375C34.3702 18.375 34.875 17.8702 34.875 17.25C34.875 17.0767 34.8326 16.9147 34.7621 16.7681L35.1401 16.3901L34.6099 15.8599ZM33.75 17.625C33.5434 17.625 33.375 17.457 33.375 17.25C33.375 17.043 33.5434 16.875 33.75 16.875C33.9566 16.875 34.125 17.043 34.125 17.25C34.125 17.457 33.9566 17.625 33.75 17.625Z" fill="#FF6093"/>
<path d="M23.25 26.625C23.5924 26.625 23.9137 26.4919 24.1552 26.25L24.2651 26.1401L23.7349 25.6099L23.625 25.7197C23.4251 25.9204 23.0756 25.9204 22.875 25.7197L22.7651 25.6099L22.2349 26.1401L22.3444 26.25C22.5862 26.4919 22.9076 26.625 23.25 26.625Z" fill="#FF6093"/>
<path d="M19.125 17.625H22.875V18.375H19.125V17.625Z" fill="#FF6093"/>
<path d="M19.125 19.125H22.875V19.875H19.125V19.125Z" fill="#FF6093"/>
<path d="M19.125 20.625H22.875V21.375H19.125V20.625Z" fill="#FF6093"/>
<path d="M19.125 22.125H19.875V22.875H19.125V22.125Z" fill="#FF6093"/>
<path d="M20.625 22.125H21.375V22.875H20.625V22.125Z" fill="#FF6093"/>
<path d="M31.875 34.875H24.2704L24.0203 34.125H28.6553L31.125 31.6553V21.3514C30.8558 21.1785 30.6045 20.9805 30.375 20.7596V31.125H28.125V33.375H23.7705L23.2309 31.7565C23.2125 31.7014 23.1814 31.6511 23.1401 31.6099L22.5896 31.0594C22.8034 31.1017 23.0239 31.125 23.25 31.125C23.8702 31.125 24.45 30.954 24.9499 30.6608L24.9855 30.8381C25.1055 31.4389 25.6372 31.875 26.25 31.875C26.8628 31.875 27.3945 31.4389 27.5149 30.8381L28.4265 26.2796C28.7243 24.7912 28.875 23.2676 28.875 21.75C28.875 20.7682 28.332 19.9114 27.5317 19.4614L28.0946 18.1474L27.4054 17.8523L26.8312 19.1917C26.7634 19.1764 26.6944 19.1648 26.625 19.1546V17.625H25.875V19.155C25.8053 19.1651 25.7366 19.1768 25.6688 19.1921L25.0946 17.8526L24.4054 18.1477L24.9683 19.4618C24.168 19.9114 23.625 20.7682 23.625 21.75C23.625 22.6395 23.6801 23.5354 23.7833 24.4215C23.6093 24.3934 23.4319 24.375 23.25 24.375C21.3892 24.375 19.875 25.8889 19.875 27.75C19.875 27.9761 19.8983 28.1966 19.9406 28.4104L18.7309 27.2006C18.6229 27.0922 18.5017 27.003 18.375 26.9239V16.125H21.375C21.375 16.5386 21.7114 16.875 22.125 16.875H26.625C27.0386 16.875 27.375 16.5386 27.375 16.125H29.0111C29.0722 15.867 29.1502 15.6154 29.2511 15.375H27.375V14.625H29.6486C29.8215 14.3557 30.0195 14.1045 30.2404 13.875H26.529C26.1994 12.9803 25.3462 12.375 24.375 12.375C23.4038 12.375 22.5506 12.9803 22.221 13.875H16.875C16.4614 13.875 16.125 14.2114 16.125 14.625V27.0581C15.6716 27.4185 15.375 27.9679 15.375 28.5907C15.375 29.1161 15.5794 29.61 15.951 29.9809L16.125 30.1553V34.875C16.125 35.2886 16.4614 35.625 16.875 35.625H31.875C32.2886 35.625 32.625 35.2886 32.625 34.875V21.9889C32.367 21.9277 32.1154 21.8497 31.875 21.7489V34.875ZM28.875 31.875H29.8447L28.875 32.8447V31.875ZM26.7795 30.6911C26.7289 30.9427 26.5065 31.125 26.25 31.125C25.9935 31.125 25.7711 30.9427 25.7205 30.6911L25.6132 30.1553C26.1525 29.625 26.5147 28.9163 26.6029 28.125H27.2925L26.7795 30.6911ZM24.375 21.75C24.375 20.7161 25.2161 19.875 26.25 19.875C27.2839 19.875 28.125 20.7161 28.125 21.75C28.125 22.125 28.1149 22.5 28.0961 22.875H25.875V23.625H28.0402C27.9979 24.1267 27.9427 24.6274 27.8666 25.125H26.625V25.875H27.7358C27.7196 25.9605 27.708 26.0471 27.6908 26.1326L27.4425 27.375H26.6029C26.466 26.1435 25.665 25.1093 24.5659 24.6424C24.441 23.685 24.375 22.7134 24.375 21.75ZM23.25 25.125C24.6975 25.125 25.875 26.3029 25.875 27.75C25.875 29.1971 24.6975 30.375 23.25 30.375C21.8025 30.375 20.625 29.1971 20.625 27.75C20.625 26.3029 21.8025 25.125 23.25 25.125ZM22.125 14.625H22.7929L22.875 14.2961C23.0471 13.6065 23.664 13.125 24.375 13.125C25.086 13.125 25.7029 13.6065 25.875 14.2961L25.9571 14.625H26.625V16.125H22.125V14.625ZM18.1552 31.125L18.75 30.5303L21.2198 33L20.625 33.5947L18.1552 31.125ZM19.3448 33.375H18.375V32.4053L19.3448 33.375ZM22.3448 31.875L21.75 32.4697L19.2802 30L19.875 29.4053L22.3448 31.875ZM22.7111 32.5691L22.9148 33.18L21.93 34.1647L21.3191 33.9611L22.7111 32.5691ZM18.75 28.2803L19.3448 28.875L17.625 30.5947L17.0303 30L18.75 28.2803ZM16.875 14.625H21.375V15.375H17.625V26.6528C17.5312 26.6393 17.4375 26.625 17.3411 26.625C17.1795 26.625 17.025 26.6501 16.875 26.6869V14.625ZM16.5 29.4694L16.4809 29.4503C16.2514 29.2211 16.125 28.9159 16.125 28.5907C16.125 27.9202 16.6706 27.375 17.3411 27.375C17.6659 27.375 17.9711 27.5014 18.201 27.7309L18.2198 27.75L16.5 29.4694ZM16.875 34.875V30.9053L17.625 31.6553V33.375C17.625 33.7886 17.9614 34.125 18.375 34.125H20.0948L20.3599 34.3901C20.4011 34.431 20.4514 34.4621 20.5065 34.4805L21.6896 34.875H16.875ZM22.7254 34.4299L23.1799 33.9754L23.4071 34.6571L22.7254 34.4299Z" fill="#FF6093"/>
</svg>
