<svg width="48" height="48" viewBox="0 0 48 48" fill="none" xmlns="http://www.w3.org/2000/svg">
<rect width="48" height="48" rx="20" fill="white"/>
<g clip-path="url(#clip0_101_3211)">
<path d="M34.7 19.8H13.8C13.3 19.8 13 19.5 13 19.1C13 18.7 13.3 18.3 13.8 18.3H34.7C35.1 18.3 35.5 18.6 35.5 19.1C35.5 19.6 35.1 19.8 34.7 19.8Z" fill="#FF88AE"/>
<path d="M33.3 35.4H15.1C13.9 35.4 13 34.4 13 33.3V16.2C13 15 14 14.1 15.1 14.1H33.2C34.4 14.1 35.3 15.1 35.3 16.2V30.5C35.3 30.9 35 31.3 34.5 31.3C34 31.3 33.7 31 33.7 30.5V16.2C33.7 15.8 33.4 15.6 33.1 15.6H15.1C14.7 15.6 14.5 15.9 14.5 16.2V33.3C14.5 33.7 14.8 33.9 15.1 33.9H33.2C33.6 33.9 33.8 33.6 33.8 33.3V32.6C33.8 32.2 34.1 31.8 34.6 31.8C35.1 31.8 35.4 32.1 35.4 32.6V33.3C35.4 34.5 34.5 35.4 33.3 35.4Z" fill="#FF6093"/>
<path d="M19.2 24.4H16.8C16.4 24.4 16 24.1 16 23.6V21.2C16 20.8 16.3 20.4 16.8 20.4H19.2C19.6 20.5 20 20.8 20 21.2V23.7C20 24.1 19.6 24.4 19.2 24.4ZM17.5 22.9H18.4V22H17.5V22.9Z" fill="#FF88AE"/>
<path d="M19.2 28.9H16.8C16.4 28.9 16 28.6 16 28.1V25.6C16 25.2 16.3 24.8 16.8 24.8H19.2C19.6 24.8 20 25.1 20 25.6V28.1C20 28.5 19.6 28.9 19.2 28.9ZM17.5 27.4H18.4V26.4H17.5V27.4Z" fill="#FF88AE"/>
<path d="M19.2 33.3H16.8C16.4 33.3 16 33.0001 16 32.6V30.1C16 29.7 16.3 29.3 16.8 29.3H19.2C19.6 29.3 20 29.6 20 30.1V32.6C20 33.0001 19.6 33.3 19.2 33.3ZM17.5 31.8H18.4V30.8H17.5V31.8Z" fill="#FF88AE"/>
<path d="M25.4 24.4H23C22.6 24.4 22.2 24.1 22.2 23.6V21.2C22.2 20.8 22.5 20.4 23 20.4H25.4C25.8 20.4 26.2 20.7 26.2 21.2V23.7C26.2 24.1 25.8 24.4 25.4 24.4ZM23.8 22.9H24.7V22H23.8V22.9Z" fill="#FF88AE"/>
<path d="M25.4 28.9H23C22.6 28.9 22.2 28.6 22.2 28.1V25.6C22.2 25.2 22.5 24.8 23 24.8H25.4C25.8 24.8 26.2 25.1 26.2 25.6V28.1C26.2 28.5 25.8 28.9 25.4 28.9ZM23.8 27.4H24.7V26.4H23.8V27.4Z" fill="#FF88AE"/>
<path d="M25.4 33.3001H23C22.6 33.3001 22.2 33.0001 22.2 32.5001V30.0001C22.2 29.6001 22.5 29.2001 23 29.2001H25.4C25.8 29.2001 26.2 29.5001 26.2 30.0001V32.5001C26.2 33.0001 25.8 33.3001 25.4 33.3001ZM23.8 31.8001H24.7V30.8001H23.8V31.8001Z" fill="#FF88AE"/>
<path d="M31.6 28.9H29.2C28.8 28.9 28.4 28.6 28.4 28.1V25.6C28.4 25.2 28.7 24.8 29.2 24.8H31.6C32 24.8 32.4 25.1 32.4 25.6V28.1C32.4 28.5 32.1 28.9 31.6 28.9ZM30 27.4H30.9V26.4H30V27.4Z" fill="#FF88AE"/>
<path d="M31.6 33.3001H29.2C28.8 33.3001 28.4 33.0001 28.4 32.5001V30.0001C28.4 29.6001 28.7 29.2001 29.2 29.2001H31.6C32 29.2001 32.4 29.5001 32.4 30.0001V32.5001C32.4 33.0001 32.1 33.3001 31.6 33.3001ZM30 31.8001H30.9V30.8001H30V31.8001Z" fill="#FF88AE"/>
<path d="M31.6 24.4H29.2C28.8 24.4 28.4 24.1 28.4 23.6V21.2C28.4 20.8 28.7 20.4 29.2 20.4H31.6C32 20.4 32.4 20.7 32.4 21.2V23.7C32.4 24.1 32.1 24.4 31.6 24.4ZM30 22.9H30.9V22H30V22.9Z" fill="#FF88AE"/>
<path d="M16.3 17C15.8 17 15.5 16.7 15.5 16.3V13.8C15.5 13.3 15.8 13 16.3 13C16.8 13 17 13.3 17 13.8V16.3C17 16.7 16.7 17 16.3 17Z" fill="#FF88AE"/>
<path d="M20.2 17C19.8 17 19.5 16.7 19.5 16.3V13.8C19.5 13.3 19.8 13 20.2 13C20.6 13 21 13.3 21 13.8V16.3C21 16.7 20.7 17 20.2 17Z" fill="#FF88AE"/>
<path d="M24.2 17C23.8 17 23.4 16.7 23.4 16.2V13.8C23.4 13.4 23.7 13 24.2 13C24.7 13 25 13.3 25 13.8V16.3C25 16.7 24.6 17 24.2 17Z" fill="#FF88AE"/>
<path d="M28.2 17C27.8 17 27.4 16.7 27.4 16.2V13.8C27.4 13.4 27.7 13 28.2 13C28.7 13 29 13.3 29 13.8V16.3C28.9 16.7 28.6 17 28.2 17Z" fill="#FF88AE"/>
<path d="M32.2 17C31.8 17 31.4 16.7 31.4 16.2V13.8C31.4 13.4 31.7 13 32.2 13C32.7 13 33 13.3 33 13.8V16.3C32.9 16.7 32.6 17 32.2 17Z" fill="#FF88AE"/>
</g>
<defs>
<clipPath id="clip0_101_3211">
<rect width="22.4" height="22.4" fill="white" transform="translate(13 13)"/>
</clipPath>
</defs>
</svg>
